<svg width="229" height="104" viewBox="0 0 229 104" fill="none" xmlns="http://www.w3.org/2000/svg">
<g filter="url(#filter0_d_2436_1013)">
<rect x="20.3079" y="13" width="188.277" height="63.3218" rx="10" fill="white"/>
</g>
<path d="M43.0252 40.8281L46.7677 38.6697L44.6787 35.0535H64.3249L54.505 52.068L52.416 48.4455L48.6736 50.6102L54.505 60.7079L71.8098 30.7305H37.1938L43.0252 40.8281Z" fill="#FBBF24"/>
<path d="M87.3363 55.2145L94.8083 37.4844H91.2369L85.9686 50.3514L80.6749 37.4844H77.1035L84.5755 55.2145H87.3363Z" fill="#3F3F46"/>
<path d="M99.033 37.4844V55.2145H112.229V52.0737H102.427V47.8185H110.71V44.6777H102.427V40.6251H112.103V37.4844H99.033Z" fill="#3F3F46"/>
<path d="M117.1 37.4844V55.2145H120.494V48.9583H124.622L128.346 55.2145H132.119L128.067 48.3757C130.119 47.4639 131.436 45.5136 131.436 43.2087C131.436 41.5876 130.853 40.2199 129.663 39.1307C128.497 38.0416 127.054 37.4844 125.306 37.4844H117.1ZM125.306 40.6251C126.8 40.6251 127.89 41.7143 127.89 43.2087C127.89 44.7031 126.8 45.8175 125.306 45.8175H120.494V40.6251H125.306Z" fill="#3F3F46"/>
<path d="M141.195 40.6251V55.2145H144.615V40.6251H150.491V37.4844H135.319V40.6251H141.195Z" fill="#3F3F46"/>
<path d="M155.112 37.4844V55.2145H168.309V52.0737H158.506V47.8185H166.789V44.6777H158.506V40.6251H168.182V37.4844H155.112Z" fill="#3F3F46"/>
<path d="M178.523 46.1721L171.938 55.2145H176.016L180.55 48.9583L185.083 55.2145H189.136L182.576 46.1721L188.883 37.4844H184.83L180.55 43.386L176.269 37.4844H172.191L178.523 46.1721Z" fill="#3F3F46"/>
<defs>
<filter id="filter0_d_2436_1013" x="0.307861" y="0" width="228.277" height="103.322" filterUnits="userSpaceOnUse" color-interpolation-filters="sRGB">
<feFlood flood-opacity="0" result="BackgroundImageFix"/>
<feColorMatrix in="SourceAlpha" type="matrix" values="0 0 0 0 0 0 0 0 0 0 0 0 0 0 0 0 0 0 127 0" result="hardAlpha"/>
<feOffset dy="7"/>
<feGaussianBlur stdDeviation="10"/>
<feComposite in2="hardAlpha" operator="out"/>
<feColorMatrix type="matrix" values="0 0 0 0 0 0 0 0 0 0 0 0 0 0 0 0 0 0 0.07 0"/>
<feBlend mode="normal" in2="BackgroundImageFix" result="effect1_dropShadow_2436_1013"/>
<feBlend mode="normal" in="SourceGraphic" in2="effect1_dropShadow_2436_1013" result="shape"/>
</filter>
</defs>
</svg>
