<svg width="229" height="104" viewBox="0 0 229 104" fill="none" xmlns="http://www.w3.org/2000/svg">
<g filter="url(#filter0_d_2436_1019)">
<rect x="20.5847" y="13" width="188.277" height="63.3218" rx="10" fill="white"/>
</g>
<path d="M189.58 50.9596C189.104 50.4282 188.7 49.8351 188.379 49.1962C187.871 48.1948 187.17 47.3058 186.317 46.5816C185.463 45.8573 184.474 45.3125 183.408 44.9792C182.476 44.6889 181.501 44.5657 180.526 44.6151C181.236 44.5743 181.934 44.8049 182.481 45.2609C183.029 45.7168 183.385 46.3642 183.479 47.0735C183.735 48.6061 184.409 50.0367 185.426 51.2054C186.443 52.3743 187.763 53.2352 189.238 53.6922C190.924 54.2143 192.731 54.1861 194.401 53.6119C192.541 53.3064 190.84 52.3708 189.58 50.9596Z" fill="#22D3EE"/>
<path d="M177.624 44.4636C177.841 45.4098 178.223 46.3112 178.752 47.1272C178.366 46.5347 178.217 45.82 178.335 45.124C178.454 44.4279 178.83 43.8012 179.391 43.3674C180.583 42.3893 181.477 41.1021 181.975 39.6493C182.473 38.1964 182.554 36.6349 182.211 35.1387C181.819 33.427 180.889 31.8834 179.556 30.7305C180.22 32.4919 180.258 34.4256 179.664 36.2116C179.437 36.8859 179.12 37.5274 178.724 38.1195C178.115 39.0497 177.7 40.0917 177.504 41.1838C177.308 42.2758 177.335 43.3959 177.582 44.4776L177.624 44.4636Z" fill="#8B5CF6"/>
<path d="M181.779 47.7578C181.464 48.3944 180.923 48.8864 180.266 49.1352C179.609 49.3839 178.883 49.371 178.235 49.0991C176.806 48.5552 175.257 48.4255 173.759 48.7247C172.262 49.0239 170.877 49.7402 169.757 50.7934C168.481 51.9997 167.614 53.5867 167.283 55.3256C168.471 53.8609 170.115 52.8514 171.944 52.4641C172.631 52.3213 173.333 52.2659 174.033 52.2994C175.132 52.3572 176.231 52.1909 177.265 51.8102C178.299 51.4294 179.248 50.8421 180.055 50.0827C180.762 49.4162 181.348 48.6294 181.788 47.7578H181.779Z" fill="#2DD4BF"/>
<path d="M45.9138 55.2152H49.8955V45.5193C49.8955 44.4454 50.1893 43.5842 50.7769 42.9358C51.3646 42.2874 52.1346 41.9632 53.0869 41.9632C54.0595 41.9632 54.8295 42.2874 55.3969 42.9358C55.9845 43.564 56.2783 44.4251 56.2783 45.5193V55.2152H60.26V45.5193C60.26 44.4454 60.5538 43.5842 61.1415 42.9358C61.7291 42.2874 62.4991 41.9632 63.4514 41.9632C64.4241 41.9632 65.194 42.2874 65.7614 42.9358C66.349 43.564 66.6429 44.4251 66.6429 45.5193V55.2152H70.6245V44.5771C70.6245 43.3411 70.351 42.257 69.8039 41.3249C69.277 40.3725 68.5577 39.6329 67.6459 39.1061C66.734 38.5793 65.6905 38.3158 64.5152 38.3158C63.421 38.3158 62.4282 38.5387 61.5366 38.9845C60.6653 39.4303 59.9459 40.099 59.3786 40.9906C58.8923 40.18 58.1932 39.5316 57.2814 39.0453C56.3898 38.559 55.3868 38.3158 54.2723 38.3158C53.2389 38.3158 52.3169 38.5185 51.5064 38.9237C50.6959 39.329 50.0779 39.9369 49.6523 40.7474V38.6806H45.9138V55.2152Z" fill="#0F172A"/>
<path d="M79.0082 55.5799C81.1561 55.5799 82.8784 54.8707 84.1752 53.4523V55.2152H87.9442V44.2124C87.9442 43.0574 87.6503 42.0341 87.0627 41.1425C86.4751 40.251 85.6646 39.562 84.6312 39.0757C83.618 38.5691 82.4326 38.3158 81.075 38.3158C79.4134 38.3158 77.9342 38.711 76.6374 39.5012C75.3406 40.2915 74.449 41.335 73.9627 42.6319L77.2149 44.2124C77.5189 43.4626 77.995 42.8649 78.6434 42.4191C79.2919 41.953 80.0517 41.72 80.923 41.72C81.8349 41.72 82.5643 41.9632 83.1114 42.4495C83.6788 42.9155 83.9625 43.5032 83.9625 44.2124V44.7595L79.0386 45.5497C77.0933 45.8739 75.6547 46.492 74.7226 47.4038C73.7905 48.3156 73.3244 49.4605 73.3244 50.8384C73.3244 52.2973 73.8411 53.4523 74.8745 54.3033C75.9079 55.1544 77.2858 55.5799 79.0082 55.5799ZM77.4581 50.6864C77.4581 49.5314 78.2382 48.8019 79.7984 48.498L83.9625 47.7989V48.4676C83.9625 49.6023 83.5674 50.5648 82.7771 51.3551C82.0071 52.1453 80.9939 52.5405 79.7376 52.5405C79.069 52.5405 78.5219 52.3784 78.0963 52.0541C77.6708 51.7097 77.4581 51.2538 77.4581 50.6864Z" fill="#0F172A"/>
<path d="M91.6243 55.2152H95.6059V46.0056C95.6059 44.7493 95.9504 43.7767 96.6394 43.0878C97.3486 42.3786 98.2604 42.024 99.3749 42.024H100.803V38.4982H99.8308C98.8176 38.4982 97.926 38.6806 97.1561 39.0453C96.3861 39.41 95.7883 40.0686 95.3628 41.021V38.6806H91.6243V55.2152Z" fill="#0F172A"/>
<path d="M110.976 55.3975C111.644 55.3975 112.303 55.3469 112.951 55.2456V51.811C112.566 51.8718 112.212 51.9022 111.887 51.9022C110.915 51.9022 110.206 51.6793 109.76 51.2335C109.314 50.7877 109.091 50.1494 109.091 49.3186V42.2367H112.89V38.6806H109.091V34.9117H105.109V36.1882C105.109 36.9988 104.887 37.6168 104.441 38.0423C103.995 38.4678 103.367 38.6806 102.556 38.6806H102.252V42.2367H105.109V49.5314C105.109 51.3753 105.616 52.814 106.629 53.8474C107.663 54.8808 109.111 55.3975 110.976 55.3975Z" fill="#0F172A"/>
<path d="M115.993 36.8265H119.975V32.5713H115.993V36.8265ZM115.993 55.2152H119.975V38.6806H115.993V55.2152Z" fill="#0F172A"/>
<path d="M123.651 55.2152H127.633V45.5193C127.633 44.4454 127.937 43.5842 128.545 42.9358C129.173 42.2874 129.983 41.9632 130.976 41.9632C131.969 41.9632 132.77 42.2874 133.377 42.9358C134.006 43.564 134.32 44.4251 134.32 45.5193V55.2152H138.301V44.5771C138.301 43.3411 138.038 42.257 137.511 41.3249C136.984 40.3725 136.245 39.6329 135.292 39.1061C134.36 38.5793 133.286 38.3158 132.071 38.3158C131.037 38.3158 130.105 38.5185 129.274 38.9237C128.464 39.329 127.836 39.9268 127.39 40.717V38.6806H123.651V55.2152Z" fill="#0F172A"/>
<path d="M149.753 55.5799C151.354 55.5799 152.813 55.2152 154.13 54.4857C155.447 53.736 156.501 52.7127 157.291 51.4159C158.081 50.0988 158.476 48.6094 158.476 46.9479C158.476 45.2863 158.081 43.8071 157.291 42.5103C156.521 41.2135 155.478 40.1902 154.16 39.4404C152.843 38.6907 151.374 38.3158 149.753 38.3158C148.112 38.3158 146.633 38.6907 145.316 39.4404C143.999 40.1902 142.945 41.2135 142.155 42.5103C141.385 43.8071 141 45.2863 141 46.9479C141 48.6094 141.385 50.0886 142.155 51.3855C142.945 52.6823 143.999 53.7056 145.316 54.4553C146.653 55.205 148.132 55.5799 149.753 55.5799ZM149.753 51.9326C148.862 51.9326 148.061 51.7198 147.352 51.2943C146.663 50.8688 146.116 50.2811 145.711 49.5314C145.326 48.7614 145.133 47.9002 145.133 46.9479C145.133 45.9955 145.326 45.1445 145.711 44.3947C146.116 43.645 146.663 43.0574 147.352 42.6319C148.061 42.1861 148.862 41.9632 149.753 41.9632C150.645 41.9632 151.425 42.1861 152.094 42.6319C152.783 43.0574 153.32 43.645 153.704 44.3947C154.11 45.1445 154.312 45.9955 154.312 46.9479C154.312 47.9002 154.11 48.7614 153.704 49.5314C153.32 50.2811 152.783 50.8688 152.094 51.2943C151.425 51.7198 150.645 51.9326 149.753 51.9326Z" fill="#0F172A"/>
<defs>
<filter id="filter0_d_2436_1019" x="0.584717" y="0" width="228.277" height="103.322" filterUnits="userSpaceOnUse" color-interpolation-filters="sRGB">
<feFlood flood-opacity="0" result="BackgroundImageFix"/>
<feColorMatrix in="SourceAlpha" type="matrix" values="0 0 0 0 0 0 0 0 0 0 0 0 0 0 0 0 0 0 127 0" result="hardAlpha"/>
<feOffset dy="7"/>
<feGaussianBlur stdDeviation="10"/>
<feComposite in2="hardAlpha" operator="out"/>
<feColorMatrix type="matrix" values="0 0 0 0 0 0 0 0 0 0 0 0 0 0 0 0 0 0 0.07 0"/>
<feBlend mode="normal" in2="BackgroundImageFix" result="effect1_dropShadow_2436_1019"/>
<feBlend mode="normal" in="SourceGraphic" in2="effect1_dropShadow_2436_1019" result="shape"/>
</filter>
</defs>
</svg>
