<svg width="230" height="104" viewBox="0 0 230 104" fill="none" xmlns="http://www.w3.org/2000/svg">
<g filter="url(#filter0_d_2436_1027)">
<rect x="20.8616" y="13" width="188.277" height="63.3218" rx="10" fill="white"/>
</g>
<path d="M54.8391 33.857L56.0946 32.6015C58.5601 30.1359 62.574 30.0749 65.0537 32.5262C65.9933 33.4571 66.6178 34.659 66.8393 35.963C67.0608 37.267 66.8682 38.6076 66.2886 39.7965C66.0106 40.3645 65.917 41.0051 66.0206 41.6288C66.1244 42.2526 66.4203 42.8284 66.8672 43.2757C67.6889 42.4521 68.3402 41.4747 68.784 40.3993C69.2278 39.3239 69.4554 38.1716 69.4538 37.0082C69.452 35.8448 69.2213 34.6931 68.7745 33.619C68.3276 32.5448 67.6734 31.5692 66.8494 30.748C63.382 27.3001 57.7537 27.3687 54.296 30.8263L42.3287 42.7932L41.3449 41.8094C38.8376 39.302 38.8216 35.2036 41.3731 32.7408C42.3176 31.832 43.5209 31.2387 44.8169 31.0429C46.1129 30.8471 47.4378 31.0583 48.6086 31.6475C49.143 31.9214 49.7503 32.0193 50.3437 31.9274C50.9371 31.8355 51.4863 31.5584 51.9128 31.1357L51.9433 31.1054C51.9528 31.096 51.9603 31.0847 51.9655 31.0724C51.9706 31.06 51.9733 31.0468 51.9733 31.0334C51.9733 31.02 51.9706 31.0067 51.9655 30.9944C51.9603 30.982 51.9528 30.9708 51.9433 30.9614C50.2962 29.3556 48.0889 28.4537 45.7886 28.4464C43.4883 28.4391 41.2754 29.327 39.6181 30.9223C36.0482 34.3686 36.0609 40.0994 39.5697 43.6082L51.5334 55.5719L50.2626 56.8427C47.797 59.3082 43.783 59.3693 41.3034 56.918C40.3638 55.9871 39.7394 54.7852 39.5179 53.4812C39.2964 52.1773 39.4889 50.8367 40.0684 49.6476C40.3464 49.0797 40.4401 48.4391 40.3364 47.8155C40.2327 47.1916 39.9368 46.6158 39.4899 46.1684C38.6683 46.9921 38.0169 47.9695 37.5731 49.0448C37.1293 50.1203 36.9017 51.2725 36.9033 52.436C36.905 53.5994 37.1358 54.7511 37.5827 55.8252C38.0296 56.8994 38.6837 57.875 39.5077 58.6962C42.975 62.1443 48.6034 62.0758 52.0612 58.6181L64.0439 46.6352L65.0315 47.6227C67.497 50.0882 67.558 54.1021 65.1067 56.5817C64.1758 57.5214 62.9739 58.1457 61.6699 58.3674C60.366 58.5889 59.0254 58.3963 57.8364 57.8167C57.2683 57.5385 56.6273 57.4447 56.0034 57.5487C55.3794 57.6525 54.8034 57.9488 54.356 58.3959C55.1797 59.2177 56.1571 59.8691 57.2324 60.3129C58.3079 60.7567 59.4601 60.9843 60.6236 60.9827C61.787 60.9809 62.9387 60.7501 64.0128 60.3032C65.087 59.8563 66.0626 59.2022 66.8838 58.3782C70.3319 54.9109 70.2633 49.2825 66.8057 45.8249L54.8391 33.857ZM53.3199 53.7846L44.1157 44.5803L53.0519 35.6443L62.2561 44.8485L53.3199 53.7846Z" fill="#0EA5E9"/>
<path d="M84.7329 55.3963C82.9013 55.3963 81.5011 54.8589 80.5324 53.7842C79.5712 52.7095 79.0338 51.2412 78.9203 49.3794L81.8266 48.6528C81.9704 51.5591 82.9391 53.0122 84.7329 53.0122C86.186 53.0122 86.9126 52.2857 86.9126 50.8325C86.9126 50.4011 86.852 50.0038 86.731 49.6405C86.6174 49.2696 86.4396 48.9328 86.1974 48.6301C85.9552 48.3198 85.7357 48.0738 85.5389 47.8922C85.3421 47.703 85.0735 47.4721 84.7329 47.1997L81.1 44.2934C80.434 43.7711 79.9004 43.1089 79.4993 42.3066C79.1057 41.4968 78.9089 40.5772 78.9089 39.5479C78.9089 38.0494 79.3744 36.8573 80.3053 35.9718C81.2362 35.0863 82.4699 34.6436 84.0063 34.6436C85.6562 34.6436 86.9656 35.0485 87.9343 35.8583C88.9107 36.6606 89.5124 37.7996 89.7394 39.2755C89.7621 39.4344 89.7886 39.6539 89.8189 39.9339L86.9126 40.6605C86.905 40.5318 86.8861 40.3388 86.8558 40.0815C86.7272 39.1581 86.4358 38.4202 85.9817 37.8677C85.5351 37.3077 84.8767 37.0276 84.0063 37.0276C83.31 37.0276 82.7726 37.2244 82.3942 37.618C82.0158 38.004 81.8266 38.5451 81.8266 39.2414C81.8266 40.3842 82.311 41.3417 83.2797 42.1136L86.9126 45.0199C88.8501 46.5866 89.8189 48.4598 89.8189 50.6395C89.8189 52.1305 89.3572 53.2961 88.4339 54.1362C87.5181 54.9763 86.2844 55.3963 84.7329 55.3963Z" fill="#18181B"/>
<path d="M95.8926 53.0122C96.657 53.0122 97.3836 52.8155 98.0723 52.4219V43.4306C98.042 43.4154 97.9664 43.37 97.8453 43.2943C97.7242 43.2186 97.6371 43.1694 97.5841 43.1467C97.5387 43.1165 97.4593 43.0711 97.3457 43.0105C97.2322 42.95 97.1376 42.9083 97.0619 42.8856C96.9938 42.8553 96.903 42.8251 96.7895 42.7948C96.6835 42.757 96.5775 42.7305 96.4716 42.7153C96.3732 42.7002 96.2672 42.6926 96.1537 42.6926C95.9115 42.6926 95.6958 42.7494 95.5066 42.8629C95.325 42.9689 95.1736 43.0975 95.0525 43.2489C94.9314 43.4003 94.8254 43.616 94.7346 43.896C94.6514 44.176 94.5908 44.4258 94.553 44.6453C94.5151 44.8572 94.4849 45.1448 94.4621 45.5081C94.4394 45.8638 94.4243 46.1401 94.4167 46.3368C94.4167 46.5336 94.4167 46.8099 94.4167 47.1656C94.4167 47.1807 94.4167 47.1921 94.4167 47.1997C94.4167 47.3283 94.4167 47.5364 94.4167 47.8241C94.4167 48.1117 94.4167 48.3879 94.4167 48.6528C94.4167 48.9177 94.4167 49.1675 94.4167 49.4021C94.4243 49.9092 94.447 50.3557 94.4849 50.7417C94.5303 51.1201 94.6022 51.4948 94.7006 51.8656C94.8065 52.2289 94.9579 52.5127 95.1547 52.7171C95.359 52.9139 95.605 53.0122 95.8926 53.0122ZM98.0723 59.5514V53.8864C97.6409 54.3329 97.1944 54.6962 96.7327 54.9763C96.2786 55.2563 95.7564 55.3963 95.166 55.3963C94.606 55.3963 94.1064 55.2563 93.6675 54.9763C93.2361 54.6887 92.8879 54.3216 92.623 53.875C92.3657 53.4285 92.15 52.9025 91.9759 52.297C91.8094 51.684 91.6921 51.0823 91.624 50.4919C91.5634 49.9016 91.5331 49.2886 91.5331 48.6528V46.439C91.5331 45.7806 91.5634 45.1789 91.624 44.6339C91.6845 44.089 91.7943 43.5516 91.9532 43.0219C92.1121 42.4921 92.3203 42.0455 92.5776 41.6822C92.8425 41.3114 93.1906 41.0162 93.622 40.7967C94.0535 40.5697 94.553 40.4561 95.1206 40.4561C95.4461 40.4561 95.7488 40.5016 96.0288 40.5924C96.3164 40.6756 96.5889 40.8119 96.8462 41.0011C97.1111 41.1903 97.3155 41.3568 97.4593 41.5006C97.6106 41.6368 97.815 41.8412 98.0723 42.1136V40.6605H100.979V59.5514H98.0723Z" fill="#18181B"/>
<path d="M105.383 55.3963C104.748 55.3963 104.237 55.173 103.851 54.7265C103.465 54.2724 103.272 53.7123 103.272 53.0463V40.6605H106.178V52.1608C106.178 52.4635 106.269 52.7095 106.451 52.8987C106.64 53.0879 106.882 53.1825 107.177 53.1825C107.336 53.1825 107.491 53.1636 107.643 53.1258C107.794 53.0879 107.942 53.0236 108.085 52.9328C108.237 52.8344 108.354 52.7587 108.437 52.7057C108.521 52.6452 108.638 52.5468 108.789 52.4105C108.948 52.2743 109.047 52.1911 109.084 52.1608V40.6605H111.991V55.192H109.084V53.6253C108.797 53.875 108.585 54.0567 108.449 54.1702C108.32 54.2837 108.119 54.4389 107.847 54.6357C107.575 54.8249 107.332 54.9649 107.12 55.0557C106.916 55.139 106.659 55.2147 106.348 55.2828C106.038 55.3585 105.716 55.3963 105.383 55.3963Z" fill="#18181B"/>
<path d="M118.507 53.0122C118.712 53.0122 118.908 52.9517 119.098 52.8306C119.294 52.7095 119.442 52.5922 119.54 52.4787C119.639 52.3651 119.76 52.2138 119.904 52.0246C119.926 51.9867 119.945 51.9602 119.96 51.9451V47.9262C119.839 48.0095 119.639 48.1381 119.359 48.3122C119.079 48.4863 118.855 48.6301 118.689 48.7436C118.522 48.8496 118.322 49.0009 118.087 49.1977C117.853 49.3869 117.671 49.5724 117.542 49.754C117.414 49.9281 117.3 50.1438 117.202 50.4011C117.103 50.6584 117.054 50.9271 117.054 51.2072C117.054 52.4105 117.538 53.0122 118.507 53.0122ZM117.054 55.3963C116.244 55.3963 115.555 55.0482 114.988 54.3519C114.428 53.648 114.148 52.8571 114.148 51.9791C114.148 51.2753 114.265 50.6357 114.5 50.0605C114.742 49.4853 114.995 49.0274 115.26 48.6869C115.525 48.3387 115.968 47.983 116.589 47.6197C117.209 47.2488 117.678 46.9953 117.996 46.8591C118.314 46.7228 118.867 46.4996 119.654 46.1893C119.79 46.1363 119.892 46.0947 119.96 46.0644V45.0199C119.96 44.2858 119.858 43.7182 119.654 43.317C119.449 42.9083 119.067 42.704 118.507 42.704C118.008 42.704 117.648 42.8781 117.429 43.2262C117.217 43.5668 117.096 44.0398 117.065 44.6453C117.058 44.7285 117.054 44.8534 117.054 45.0199H114.148C114.163 43.6273 114.553 42.5186 115.317 41.6936C116.081 40.8686 117.145 40.4561 118.507 40.4561C119.862 40.4561 120.925 40.8762 121.697 41.7163C122.477 42.5488 122.867 43.65 122.867 45.0199V51.5591C122.867 53.0728 122.992 54.2837 123.241 55.192H120.346L119.96 53.0122C119.809 53.315 119.684 53.5496 119.586 53.7161C119.495 53.8826 119.359 54.0907 119.177 54.3405C118.995 54.5827 118.814 54.7719 118.632 54.9081C118.45 55.0368 118.223 55.1503 117.951 55.2487C117.678 55.3471 117.379 55.3963 117.054 55.3963Z" fill="#18181B"/>
<path d="M125.376 55.192V40.6605H128.282V42.6018C128.577 42.0266 129.005 41.5271 129.565 41.1032C130.132 40.6718 130.761 40.4561 131.449 40.4561C131.472 40.4561 131.627 40.4713 131.915 40.5016V43.7144C131.377 43.5025 130.84 43.3965 130.303 43.3965C129.697 43.3965 129.209 43.5781 128.838 43.9414C128.467 44.3047 128.282 44.7853 128.282 45.3832V55.192H125.376Z" fill="#18181B"/>
<path d="M137.251 55.3963C136.547 55.3963 135.934 55.2752 135.411 55.033C134.897 54.7908 134.484 54.4767 134.174 54.0907C133.871 53.6972 133.625 53.1977 133.436 52.5922C133.247 51.9791 133.114 51.3699 133.039 50.7644C132.971 50.1514 132.929 49.4399 132.914 48.6301C132.891 47.9943 132.891 47.3586 132.914 46.7228C132.936 45.966 132.986 45.2962 133.061 44.7134C133.145 44.1231 133.285 43.5516 133.481 42.9991C133.678 42.4467 133.932 41.9925 134.242 41.6368C134.56 41.2811 134.972 40.9973 135.479 40.7854C135.994 40.5659 136.592 40.4561 137.273 40.4561C137.894 40.4561 138.439 40.5394 138.908 40.7059C139.385 40.8648 139.778 41.1108 140.089 41.4438C140.407 41.7693 140.668 42.1326 140.872 42.5337C141.084 42.9348 141.243 43.423 141.349 43.9982C141.455 44.5658 141.527 45.1259 141.565 45.6784C141.61 46.2309 141.633 46.8666 141.633 47.5856V47.9262H135.82V48.6528C135.82 48.7512 135.82 48.9063 135.82 49.1183C135.805 49.3983 135.801 49.6897 135.809 49.9924C135.824 50.2876 135.839 50.579 135.854 50.8666C135.869 51.1542 135.911 51.4304 135.979 51.6953C136.047 51.9527 136.13 52.1797 136.229 52.3765C136.327 52.5733 136.463 52.7284 136.637 52.8419C136.819 52.9555 137.031 53.0122 137.273 53.0122C137.576 53.0122 137.826 52.9555 138.022 52.8419C138.219 52.7209 138.363 52.543 138.454 52.3084C138.552 52.0737 138.62 51.8391 138.658 51.6045C138.696 51.3699 138.719 51.0747 138.726 50.719V50.1059H141.61V50.6849C141.542 52.2365 141.16 53.4096 140.463 54.2043C139.767 54.999 138.696 55.3963 137.251 55.3963ZM135.82 46.4731H138.704V45.5989C138.696 45.2129 138.673 44.8761 138.636 44.5885C138.598 44.3009 138.53 44.0133 138.431 43.7257C138.34 43.4381 138.197 43.2186 138 43.0673C137.803 42.9159 137.561 42.8402 137.273 42.8402C136.978 42.8402 136.728 42.9197 136.524 43.0786C136.327 43.2376 136.18 43.4684 136.081 43.7711C135.99 44.0663 135.926 44.3577 135.888 44.6453C135.85 44.9329 135.828 45.2773 135.82 45.6784V46.4731Z" fill="#18181B"/>
<path d="M149.171 55.3963C147.339 55.3963 145.939 54.8589 144.97 53.7842C144.009 52.7095 143.472 51.2412 143.358 49.3794L146.265 48.6528C146.408 51.5591 147.377 53.0122 149.171 53.0122C150.624 53.0122 151.351 52.2857 151.351 50.8325C151.351 50.4011 151.29 50.0038 151.169 49.6405C151.055 49.2696 150.878 48.9328 150.635 48.6301C150.393 48.3198 150.174 48.0738 149.977 47.8922C149.78 47.703 149.511 47.4721 149.171 47.1997L145.538 44.2934C144.872 43.7711 144.338 43.1089 143.937 42.3066C143.544 41.4968 143.347 40.5772 143.347 39.5479C143.347 38.0494 143.812 36.8573 144.743 35.9718C145.674 35.0863 146.908 34.6436 148.444 34.6436C150.094 34.6436 151.404 35.0485 152.372 35.8583C153.349 36.6606 153.95 37.7996 154.177 39.2755C154.2 39.4344 154.227 39.6539 154.257 39.9339L151.351 40.6605C151.343 40.5318 151.324 40.3388 151.294 40.0815C151.165 39.1581 150.874 38.4202 150.42 37.8677C149.973 37.3077 149.315 37.0276 148.444 37.0276C147.748 37.0276 147.211 37.2244 146.832 37.618C146.454 38.004 146.265 38.5451 146.265 39.2414C146.265 40.3842 146.749 41.3417 147.718 42.1136L151.351 45.0199C153.288 46.5866 154.257 48.4598 154.257 50.6395C154.257 52.1305 153.795 53.2961 152.872 54.1362C151.956 54.9763 150.722 55.3963 149.171 55.3963Z" fill="#18181B"/>
<path d="M160.285 55.3963C159.142 55.3963 158.31 55.1049 157.788 54.5222C157.273 53.9394 157.008 53.0577 156.993 51.877V42.8402H155.54V40.6605H156.993V35.5745H159.899V40.6605H162.079V42.8402H159.899V51.3207C159.899 51.9035 159.979 52.3311 160.138 52.6035C160.297 52.876 160.618 53.0122 161.103 53.0122C161.314 53.0122 161.64 52.9744 162.079 52.8987V55.2601C161.352 55.3509 160.754 55.3963 160.285 55.3963Z" fill="#18181B"/>
<path d="M171.547 54.034C170.873 54.9422 169.757 55.3963 168.198 55.3963C166.639 55.3963 165.523 54.9422 164.849 54.034C164.175 53.1258 163.839 51.8164 163.839 50.1059V45.7465C163.839 44.036 164.175 42.7267 164.849 41.8185C165.523 40.9103 166.639 40.4561 168.198 40.4561C169.757 40.4561 170.873 40.9103 171.547 41.8185C172.221 42.7267 172.557 44.036 172.557 45.7465V50.1059C172.557 51.8164 172.221 53.1258 171.547 54.034ZM167.653 52.9214C167.812 52.982 167.994 53.0122 168.198 53.0122C168.402 53.0122 168.58 52.982 168.732 52.9214C168.891 52.8609 169.019 52.789 169.118 52.7057C169.224 52.6149 169.311 52.4862 169.379 52.3197C169.447 52.1457 169.5 51.9943 169.538 51.8656C169.575 51.737 169.602 51.5515 169.617 51.3093C169.632 51.0671 169.64 50.8779 169.64 50.7417C169.647 50.5979 169.651 50.386 169.651 50.1059V45.7465C169.651 45.4665 169.647 45.2583 169.64 45.1221C169.64 44.9783 169.632 44.7853 169.617 44.5431C169.602 44.3009 169.575 44.1155 169.538 43.9868C169.5 43.8582 169.447 43.7106 169.379 43.5441C169.311 43.37 169.224 43.2413 169.118 43.1581C169.019 43.0673 168.891 42.9916 168.732 42.931C168.58 42.8705 168.402 42.8402 168.198 42.8402C167.994 42.8402 167.812 42.8705 167.653 42.931C167.502 42.9916 167.373 43.0673 167.267 43.1581C167.169 43.2413 167.085 43.37 167.017 43.5441C166.949 43.7106 166.896 43.8582 166.858 43.9868C166.821 44.1155 166.794 44.3009 166.779 44.5431C166.764 44.7853 166.752 44.9783 166.745 45.1221C166.745 45.2583 166.745 45.4665 166.745 45.7465V50.1059C166.745 50.386 166.745 50.5979 166.745 50.7417C166.752 50.8779 166.764 51.0671 166.779 51.3093C166.794 51.5515 166.821 51.737 166.858 51.8656C166.896 51.9943 166.949 52.1457 167.017 52.3197C167.085 52.4862 167.169 52.6149 167.267 52.7057C167.373 52.789 167.502 52.8609 167.653 52.9214Z" fill="#18181B"/>
<path d="M174.942 55.192V40.6605H177.848V42.2272C178.279 41.8336 178.631 41.5347 178.904 41.3303C179.176 41.1184 179.551 40.9216 180.028 40.74C180.512 40.5507 181.027 40.4561 181.571 40.4561C182.192 40.4561 182.695 40.6832 183.081 41.1373C183.467 41.5914 183.66 42.1477 183.66 42.8062V55.192H180.754V44.2934C180.754 43.7863 180.682 43.4192 180.538 43.1921C180.395 42.9575 180.103 42.8402 179.664 42.8402C179.414 42.8402 179.165 42.8932 178.915 42.9991C178.673 43.0975 178.491 43.1921 178.37 43.283C178.249 43.3662 178.075 43.5025 177.848 43.6917V55.192H174.942Z" fill="#18181B"/>
<path d="M190.313 55.3963C189.609 55.3963 188.996 55.2752 188.474 55.033C187.959 54.7908 187.547 54.4767 187.237 54.0907C186.934 53.6972 186.688 53.1977 186.499 52.5922C186.309 51.9791 186.177 51.3699 186.101 50.7644C186.033 50.1514 185.991 49.4399 185.976 48.6301C185.954 47.9943 185.954 47.3586 185.976 46.7228C185.999 45.966 186.048 45.2962 186.124 44.7134C186.207 44.1231 186.347 43.5516 186.544 42.9991C186.741 42.4467 186.994 41.9925 187.305 41.6368C187.622 41.2811 188.035 40.9973 188.542 40.7854C189.057 40.5659 189.655 40.4561 190.336 40.4561C190.956 40.4561 191.501 40.5394 191.971 40.7059C192.447 40.8648 192.841 41.1108 193.151 41.4438C193.469 41.7693 193.73 42.1326 193.935 42.5337C194.147 42.9348 194.305 43.423 194.411 43.9982C194.517 44.5658 194.589 45.1259 194.627 45.6784C194.673 46.2309 194.695 46.8666 194.695 47.5856V47.9262H188.883V48.6528C188.883 48.7512 188.883 48.9063 188.883 49.1183C188.868 49.3983 188.864 49.6897 188.871 49.9924C188.886 50.2876 188.902 50.579 188.917 50.8666C188.932 51.1542 188.973 51.4304 189.042 51.6953C189.11 51.9527 189.193 52.1797 189.291 52.3765C189.39 52.5733 189.526 52.7284 189.7 52.8419C189.882 52.9555 190.094 53.0122 190.336 53.0122C190.639 53.0122 190.888 52.9555 191.085 52.8419C191.282 52.7209 191.426 52.543 191.516 52.3084C191.615 52.0737 191.683 51.8391 191.721 51.6045C191.759 51.3699 191.781 51.0747 191.789 50.719V50.1059H194.673V50.6849C194.604 52.2365 194.222 53.4096 193.526 54.2043C192.83 54.999 191.759 55.3963 190.313 55.3963ZM188.883 46.4731H191.766V45.5989C191.759 45.2129 191.736 44.8761 191.698 44.5885C191.66 44.3009 191.592 44.0133 191.494 43.7257C191.403 43.4381 191.259 43.2186 191.062 43.0673C190.866 42.9159 190.623 42.8402 190.336 42.8402C190.041 42.8402 189.791 42.9197 189.587 43.0786C189.39 43.2376 189.242 43.4684 189.144 43.7711C189.053 44.0663 188.989 44.3577 188.951 44.6453C188.913 44.9329 188.89 45.2773 188.883 45.6784V46.4731Z" fill="#18181B"/>
<defs>
<filter id="filter0_d_2436_1027" x="0.861572" y="0" width="228.277" height="103.322" filterUnits="userSpaceOnUse" color-interpolation-filters="sRGB">
<feFlood flood-opacity="0" result="BackgroundImageFix"/>
<feColorMatrix in="SourceAlpha" type="matrix" values="0 0 0 0 0 0 0 0 0 0 0 0 0 0 0 0 0 0 127 0" result="hardAlpha"/>
<feOffset dy="7"/>
<feGaussianBlur stdDeviation="10"/>
<feComposite in2="hardAlpha" operator="out"/>
<feColorMatrix type="matrix" values="0 0 0 0 0 0 0 0 0 0 0 0 0 0 0 0 0 0 0.07 0"/>
<feBlend mode="normal" in2="BackgroundImageFix" result="effect1_dropShadow_2436_1027"/>
<feBlend mode="normal" in="SourceGraphic" in2="effect1_dropShadow_2436_1027" result="shape"/>
</filter>
</defs>
</svg>
