<svg width="229" height="104" viewBox="0 0 229 104" fill="none" xmlns="http://www.w3.org/2000/svg">
<g filter="url(#filter0_d_2436_1054)">
<rect x="20.7231" y="13.3218" width="188.277" height="63.3218" rx="10" fill="white"/>
</g>
<path d="M68.6196 54.7882C68.3835 54.4124 68.0748 54.0873 67.7116 53.8322C67.3485 53.577 66.938 53.3968 66.5044 53.302C64.8454 52.9162 63.4065 51.8893 62.5022 50.4459C61.598 49.0024 61.3019 47.2596 61.6786 45.5985C61.8234 44.9565 61.7753 44.2859 61.5403 43.6711C61.3053 43.0563 60.8939 42.5247 60.3577 42.143C59.8215 41.7613 59.1845 41.5465 58.5267 41.5256C57.8688 41.5047 57.2195 41.6787 56.6602 42.0256C56.1009 42.3726 55.6566 42.8771 55.3831 43.4757C55.1096 44.0744 55.019 44.7405 55.1229 45.3904C55.2267 46.0404 55.5203 46.6452 55.9667 47.1288C56.4131 47.6124 56.9924 47.9534 57.632 48.1088C58.4594 48.2954 59.2418 48.6435 59.9344 49.1331C60.627 49.6227 61.2161 50.2442 61.6681 50.9619C62.12 51.6797 62.4258 52.4795 62.5681 53.3157C62.7103 54.1518 62.6861 55.0079 62.4968 55.8346C62.3848 56.3677 62.4047 56.92 62.555 57.4434C62.7054 57.9669 62.9814 58.4457 63.3592 58.8381C63.7369 59.2304 64.2048 59.5244 64.7223 59.6945C65.2397 59.8646 65.7908 59.9055 66.3277 59.8137C66.8645 59.722 67.3708 59.5003 67.8024 59.1681C68.2339 58.8358 68.5777 58.4031 68.8037 57.9076C69.0296 57.412 69.131 56.8687 69.099 56.325C69.0669 55.7813 68.9023 55.2537 68.6196 54.7882Z" fill="#F97316"/>
<path d="M48.0846 51.0812C48.6688 51.4 49.335 51.5371 49.9976 51.4746C50.6602 51.4122 51.2891 51.1533 51.8035 50.731C52.3179 50.3086 52.6944 49.7423 52.8847 49.1045C53.075 48.4667 53.0704 47.7867 52.8715 47.1515C52.6193 46.3416 52.5295 45.49 52.6072 44.6453C52.6848 43.8007 52.9284 42.9797 53.324 42.2294C53.7196 41.4791 54.2594 40.8142 54.9124 40.2729C55.5655 39.7316 56.3189 39.3246 57.1296 39.075C57.7583 38.8781 58.3147 38.4996 58.7288 37.9871C59.1429 37.4747 59.3962 36.8512 59.4568 36.1952C59.5174 35.5391 59.3826 34.8798 59.0694 34.3002C58.7561 33.7205 58.2784 33.2465 57.6964 32.9378C57.1144 32.629 56.454 32.4993 55.7985 32.565C55.1429 32.6306 54.5214 32.8887 54.0122 33.3068C53.5029 33.7248 53.1288 34.2841 52.9366 34.9144C52.7446 35.5446 52.7432 36.2175 52.9327 36.8485C53.4301 38.4776 53.2619 40.2373 52.4649 41.7427C51.6679 43.248 50.3071 44.3762 48.6802 44.8805C48.0379 45.0668 47.4663 45.4415 47.0395 45.9562C46.6126 46.471 46.3501 47.102 46.2859 47.7676C46.2218 48.4333 46.3589 49.1028 46.6796 49.6896C47.0003 50.2764 47.4897 50.7535 48.0846 51.0589V51.0812Z" fill="#F97316"/>
<path d="M56.6792 50.5357C56.2351 50.5513 55.7987 50.6554 55.3953 50.8418C54.992 51.0281 54.6299 51.2931 54.3302 51.6212C53.1677 52.8646 51.56 53.5972 49.8588 53.6588C48.1576 53.7203 46.5012 53.1058 45.2518 51.9496C44.929 51.6467 44.5492 51.411 44.1345 51.2561C43.7198 51.1013 43.2785 51.0305 42.8362 51.0478C42.2917 51.0735 41.7618 51.2321 41.2927 51.5097C40.8236 51.7873 40.4296 52.1754 40.1451 52.6403C39.8605 53.1052 39.6941 53.6327 39.6602 54.1767C39.6264 54.7207 39.7263 55.2647 39.9511 55.7613C40.1759 56.2578 40.5188 56.6918 40.95 57.0253C41.3811 57.3589 41.8872 57.5818 42.4243 57.6747C42.9614 57.7675 43.5131 57.7276 44.0312 57.5582C44.5493 57.3889 45.0181 57.0953 45.3965 56.7031C45.9723 56.0797 46.6654 55.576 47.4361 55.2209C48.2069 54.8658 49.0401 54.6662 49.888 54.6337C50.736 54.6011 51.5821 54.7361 52.3778 55.031C53.1735 55.326 53.9032 55.775 54.5251 56.3524C54.9299 56.7182 55.4183 56.9793 55.9473 57.1127C56.4765 57.2461 57.0302 57.2479 57.5601 57.1178C58.09 56.9878 58.58 56.7298 58.9872 56.3666C59.3943 56.0034 59.7063 55.5459 59.8959 55.0342C60.0853 54.5225 60.1466 53.9722 60.0742 53.4313C60.0018 52.8905 59.798 52.3757 59.4806 51.9318C59.1632 51.488 58.742 51.1287 58.2536 50.8853C57.7652 50.6419 57.2246 50.5219 56.6792 50.5357Z" fill="#F97316"/>
<path d="M91.7782 55.0052C93.5715 55.0052 94.6893 54.3542 95.1315 53.0522C95.2789 52.5608 95.3894 51.9344 95.4631 51.1729L94.505 51.136C94.3577 52.8311 93.9277 53.6909 93.2153 53.7154C92.6749 53.6663 92.4047 53.0522 92.4047 51.873V44.1715C92.4047 41.1008 90.9798 39.2092 88.1302 38.4968C87.3932 38.3248 86.5948 38.2389 85.735 38.2389C82.394 38.2389 80.2936 38.9635 79.4338 40.4129C79.2127 40.7814 79.1022 41.1745 79.1022 41.5921C79.1022 42.5502 79.5566 43.1521 80.4656 43.3977C80.6867 43.4714 80.92 43.5083 81.1657 43.5083C82.222 43.5083 82.9345 42.9924 83.3029 41.9606C83.3521 41.8132 83.4258 41.5675 83.524 41.2236C83.7943 40.241 84.1382 39.6268 84.5558 39.3812C84.826 39.2583 85.1331 39.1969 85.477 39.1969C86.6316 39.1969 87.3318 39.8971 87.5774 41.2973C87.6757 41.8132 87.7248 42.4274 87.7248 43.1398V45.535C81.4114 45.6578 78.2423 47.3283 78.2178 50.5464C78.2178 52.7328 79.1758 54.1331 81.092 54.7472C81.657 54.9192 82.2835 55.0052 82.9713 55.0052C85.0594 55.0052 86.5948 54.2191 87.5774 52.6468C87.774 52.3275 87.9336 51.9958 88.0565 51.6519C88.5724 53.7646 89.8129 54.8823 91.7782 55.0052ZM84.8874 53.4207C83.6591 53.3715 83.0327 52.2783 83.0081 50.1411C83.0081 48.5197 83.6714 47.4634 84.998 46.9721C85.7104 46.751 86.6194 46.6159 87.7248 46.5667V50.1411C87.2581 51.8607 86.5088 52.9171 85.477 53.3101C85.2559 53.3838 85.0594 53.4207 84.8874 53.4207Z" fill="#18181B"/>
<path d="M105.928 53.6786H103.201V45.7192C103.373 43.1398 104 41.5675 105.081 41.0025C105.253 40.9288 105.412 40.892 105.56 40.892C105.83 40.892 106.125 41.1745 106.444 41.7395C106.886 42.5256 107.365 43.0169 107.881 43.2135C108.127 43.2872 108.397 43.324 108.692 43.324C109.675 43.324 110.375 42.8573 110.792 41.9238C110.94 41.6044 111.013 41.2728 111.013 40.9288C111.013 39.7005 110.412 38.9267 109.208 38.6073C108.913 38.5336 108.606 38.4968 108.287 38.4968C106.763 38.4968 105.425 39.0987 104.27 40.3024C103.754 40.892 103.361 41.5307 103.091 42.2185L102.833 38.7916H96.3843V39.7497H98.5216V51.7624C98.5216 52.8434 98.0917 53.4575 97.2319 53.6049C96.9862 53.654 96.7037 53.6786 96.3843 53.6786V54.6367H106.813C106.813 54.0717 106.653 53.7646 106.334 53.7154C106.211 53.6909 106.076 53.6786 105.928 53.6786Z" fill="#18181B"/>
<path d="M117.351 46.6404C117.351 43.2012 117.769 41.0025 118.604 40.0445C119.12 39.4794 119.845 39.1969 120.778 39.1969C122.351 39.1969 123.358 39.9953 123.8 41.5921C124.095 42.6239 124.242 44.2575 124.242 46.493C124.242 50.0797 123.775 52.3398 122.842 53.2733C122.302 53.7891 121.601 54.0471 120.742 54.0471C119.218 54.0471 118.236 53.261 117.794 51.6888C117.499 50.6324 117.351 48.9496 117.351 46.6404ZM120.963 38.2389C117.941 38.2389 115.62 39.2706 113.998 41.3342C112.868 42.8081 112.303 44.5278 112.303 46.493C112.303 49.269 113.261 51.4677 115.177 53.089C116.7 54.3664 118.518 55.0052 120.631 55.0052C123.53 55.0052 125.802 53.9611 127.448 51.873C128.676 50.3008 129.291 48.4829 129.291 46.4193C129.291 43.6679 128.32 41.5184 126.379 39.9708C124.881 38.8162 123.075 38.2389 120.963 38.2389Z" fill="#18181B"/>
<path d="M138.613 53.6786H137.95L137.987 44.1715C138.134 42.2308 138.773 40.9657 139.903 40.3761C140.222 40.2041 140.542 40.1182 140.861 40.1182C141.77 40.1182 142.421 40.6832 142.814 41.8132C142.986 42.3537 143.072 42.9555 143.072 43.6188V51.7624C143.072 52.7697 142.839 53.3715 142.372 53.5681C142.151 53.6418 141.844 53.6786 141.451 53.6786V54.6367H149.263C149.263 54.0717 149.103 53.7646 148.784 53.7154C148.636 53.6909 148.489 53.6786 148.341 53.6786H147.715V44.2452V43.9873C147.887 41.9483 148.55 40.6832 149.705 40.1918C149.951 40.0936 150.196 40.0445 150.442 40.0445C151.498 40.0445 152.223 40.6709 152.616 41.9238C152.763 42.4396 152.837 43.0047 152.837 43.6188V51.7624C152.837 52.7697 152.604 53.3715 152.137 53.5681C151.916 53.6418 151.609 53.6786 151.216 53.6786V54.6367H159.617C159.617 54.0717 159.458 53.7646 159.138 53.7154C158.991 53.6909 158.843 53.6786 158.696 53.6786H157.48V44.061C157.48 41.6535 156.682 39.9462 155.085 38.939C154.348 38.4722 153.549 38.2389 152.69 38.2389C150.307 38.2634 148.526 39.4057 147.347 41.6658C146.757 39.9216 145.713 38.8284 144.214 38.3862C143.821 38.288 143.428 38.2389 143.035 38.2389C140.677 38.2634 138.957 39.3443 137.876 41.4816L137.692 38.7916H131.133V39.7497H133.27V51.7624C133.27 52.8925 132.742 53.5189 131.686 53.6418C131.514 53.6663 131.33 53.6786 131.133 53.6786V54.6367H139.498C139.498 54.0717 139.338 53.7646 139.019 53.7154C138.896 53.6909 138.761 53.6786 138.613 53.6786Z" fill="#18181B"/>
<path d="M169.272 53.6786H167.908V38.7916H161.091V39.7497H163.229V51.7624C163.229 52.8434 162.799 53.4575 161.939 53.6049C161.693 53.654 161.411 53.6786 161.091 53.6786V54.6367H170.156C170.156 54.0717 169.996 53.7646 169.677 53.7154C169.554 53.6909 169.419 53.6786 169.272 53.6786ZM168.24 33.9644C168.24 32.8835 167.761 32.0851 166.803 31.5692C166.385 31.3235 165.943 31.2007 165.476 31.2007C164.42 31.2007 163.622 31.6797 163.081 32.6378C162.86 33.0554 162.749 33.4976 162.749 33.9644C162.749 35.0453 163.229 35.8314 164.187 36.3227C164.604 36.5438 165.034 36.6543 165.476 36.6543C166.557 36.6543 167.356 36.1999 167.871 35.2909C168.117 34.8733 168.24 34.4311 168.24 33.9644Z" fill="#18181B"/>
<path d="M171.077 54.6367H176.642V53.6786H174.062L178.484 48.1512L182.169 53.6786H180.142V54.6367H188.654C188.654 54.0717 188.458 53.7646 188.065 53.7154C187.966 53.6909 187.856 53.6786 187.733 53.6786H186.996L181.616 45.5718L185.264 40.8183C185.756 40.155 186.382 39.7865 187.144 39.7128C187.512 39.6637 187.733 39.5163 187.807 39.2706C187.831 39.1232 187.844 38.9635 187.844 38.7916H182.39V39.7497H184.785L180.99 44.6506L177.747 39.7497H179.774V38.7916H171.225V39.7497H172.92L177.931 47.2669L173.583 52.61C173.067 53.2241 172.441 53.5926 171.704 53.7154C171.36 53.74 171.163 53.8874 171.114 54.1576C171.09 54.305 171.077 54.4647 171.077 54.6367Z" fill="#18181B"/>
<defs>
<filter id="filter0_d_2436_1054" x="0.723145" y="0.321777" width="228.277" height="103.322" filterUnits="userSpaceOnUse" color-interpolation-filters="sRGB">
<feFlood flood-opacity="0" result="BackgroundImageFix"/>
<feColorMatrix in="SourceAlpha" type="matrix" values="0 0 0 0 0 0 0 0 0 0 0 0 0 0 0 0 0 0 127 0" result="hardAlpha"/>
<feOffset dy="7"/>
<feGaussianBlur stdDeviation="10"/>
<feComposite in2="hardAlpha" operator="out"/>
<feColorMatrix type="matrix" values="0 0 0 0 0 0 0 0 0 0 0 0 0 0 0 0 0 0 0.07 0"/>
<feBlend mode="normal" in2="BackgroundImageFix" result="effect1_dropShadow_2436_1054"/>
<feBlend mode="normal" in="SourceGraphic" in2="effect1_dropShadow_2436_1054" result="shape"/>
</filter>
</defs>
</svg>
