<svg width="229" height="104" viewBox="0 0 229 104" fill="none" xmlns="http://www.w3.org/2000/svg">
<g filter="url(#filter0_d_2436_1062)">
<rect x="20" y="13.3218" width="188.277" height="63.3218" rx="10" fill="white"/>
</g>
<path d="M65.0949 55.1281C64.4953 56.0582 64.1955 56.6616 64.1955 56.9381C64.1955 57.2398 64.3079 57.4409 64.5328 57.5415C64.5328 57.5917 64.3204 57.7426 63.8957 57.994C63.4959 58.2705 62.9338 58.4088 62.2092 58.4088C61.4847 58.4088 61.1224 58.2202 61.1224 57.8431C61.1224 57.1895 62.3466 55.0275 64.7951 51.3571C67.2686 47.6616 68.8926 45.1099 69.6671 43.7021C71.366 40.635 72.2155 38.2091 72.2155 36.4241C72.2155 35.7202 72.0781 35.0666 71.8033 34.4633C71.3785 33.5582 70.3542 33.1057 68.7302 33.1057C65.757 33.1057 62.5965 34.4758 59.2486 37.216C56.7002 39.3278 54.7389 41.5149 53.3647 43.7775C52.1155 45.9144 51.4909 47.825 51.4909 49.5093C51.4909 51.9228 52.6027 53.1546 54.8263 53.2049C54.9263 53.2049 55.0262 53.2049 55.1261 53.2049C58.0743 53.2049 60.3104 52.1616 61.8345 50.075C62.4341 49.2454 62.7339 48.5415 62.7339 47.9633C62.7339 47.385 62.5965 47.0205 62.3217 46.8697C62.2967 46.8445 62.2842 46.7943 62.2842 46.7188C62.2842 46.6434 62.3591 46.6057 62.509 46.6057C63.1586 46.6057 63.4834 47.0331 63.4834 47.8878C63.4834 48.4158 63.2336 49.1322 62.7339 50.0373C62.2342 50.9423 61.3223 51.7971 59.9981 52.6015C58.6989 53.406 57.2123 53.8082 55.5384 53.8082C53.8644 53.8082 52.5402 53.318 51.5658 52.3376C50.5914 51.3571 50.1042 50.0373 50.1042 48.3781C50.1042 44.4563 52.7776 40.3334 58.1243 36.0093C59.4734 34.9283 61.2223 34.0233 63.371 33.2943C65.5447 32.5652 67.5059 32.2007 69.2549 32.2007C71.0288 32.2007 72.278 32.5401 73.0025 33.2188C73.7271 33.8725 74.0894 34.7901 74.0894 35.9716C74.0894 38.8376 72.3654 42.8976 68.9176 48.1518C69.6921 47.1714 70.9538 45.9269 72.7027 44.4186C78.9239 39.1644 84.2705 35.7077 88.7427 34.0484C88.9676 33.9479 89.2175 33.8976 89.4923 33.8976C90.4417 33.8976 91.0413 34.4381 91.2912 35.5191C91.4161 35.9465 90.8165 36.839 89.4923 38.1965C86.3692 41.4144 83.7209 44.9339 81.5472 48.7552C79.3736 52.5764 78.2867 55.3166 78.2867 56.9758C78.2867 57.3781 78.3617 57.6546 78.5116 57.8054C78.6615 57.9814 78.8989 58.0317 79.2237 57.9563C79.5485 57.906 80.223 57.6546 81.2474 57.2021C82.2968 56.7496 82.9838 56.4856 83.3086 56.4102C83.4336 56.4605 83.496 56.5233 83.496 56.5987C83.496 56.9758 82.8339 57.5038 81.5097 58.1825C80.2106 58.8613 79.2362 59.2007 78.5866 59.2007C77.937 59.2007 77.5247 59.0876 77.3498 58.8613C76.9001 58.2328 76.6752 57.4409 76.6752 56.4856C76.6752 54.3236 77.8245 51.2188 80.1231 47.1714C81.5972 44.6322 83.8708 41.2133 86.9439 36.9144C83.6209 37.216 79.3236 39.8557 74.0519 44.8334C69.8545 48.8306 66.8688 52.2621 65.0949 55.1281Z" fill="#18181B"/>
<path d="M97.1677 44.3054L97.6924 44.1923C97.9672 44.1923 98.2295 44.3054 98.4794 44.5317C98.7292 44.7579 98.8541 44.9339 98.8541 45.0596C98.8541 45.1853 98.0796 46.4046 96.5306 48.7174C94.9816 51.0052 94.207 52.6015 94.207 53.5065C94.207 53.582 94.2195 53.6574 94.2445 53.7328C94.3694 54.311 94.6443 54.6001 95.069 54.6001C96.3682 54.6001 98.7417 52.4381 102.19 48.1141C102.265 48.0135 102.352 47.9633 102.452 47.9633C102.552 47.9633 102.602 48.0638 102.602 48.2649C102.602 48.4409 102.489 48.6797 102.265 48.9814C99.0665 53.2803 96.6305 55.4297 94.9566 55.4297C94.7317 55.4297 94.5193 55.392 94.3195 55.3166C93.2201 54.8892 92.6705 54.0596 92.6705 52.8278C92.6705 52.4004 92.7205 51.973 92.8204 51.5457L90.4968 53.8082C89.0228 55.1155 87.9484 55.7691 87.2738 55.7691C86.6242 55.7691 85.9996 55.5554 85.4 55.1281C84.7254 54.6253 84.3881 53.9591 84.3881 53.1295C84.3881 51.2943 85.6623 49.1071 88.2108 46.568C90.7592 44.0038 93.0952 42.7216 95.2189 42.7216C96.0434 42.7216 96.5931 43.0107 96.8679 43.589C96.9428 43.7901 97.0053 43.966 97.0553 44.1169C97.1052 44.2426 97.1427 44.3054 97.1677 44.3054ZM85.9622 53.582C85.9622 54.487 86.2745 54.9395 86.8991 54.9395C88.3482 54.9395 90.3219 53.3431 92.8204 50.1504L96.7929 44.6448C96.5931 44.2929 96.2683 44.1169 95.8185 44.1169C94.2945 44.1169 92.2707 45.311 89.7473 47.6993C87.2239 50.0624 85.9622 52.0233 85.9622 53.582Z" fill="#18181B"/>
<path d="M109.914 43.4381L115.311 43.3627C115.385 43.413 115.423 43.4507 115.423 43.4758C115.423 43.7021 113.861 44.0163 110.738 44.4186C107.64 44.8208 105.966 45.0596 105.716 45.135C105.242 45.5624 104.367 46.8445 103.093 48.9814C101.819 51.0931 101.182 52.6392 101.182 53.6197C101.182 54.5498 101.819 55.0149 103.093 55.0149C103.693 55.0149 104.48 54.8264 105.454 54.4493C106.429 54.0722 107.178 53.7202 107.703 53.3934C109.102 52.5135 110.601 51.2188 112.2 49.5093C112.55 49.1574 112.787 48.9814 112.912 48.9814C112.987 48.9814 113.024 49.0568 113.024 49.2077C113.024 49.3585 112.837 49.6602 112.462 50.1127C111.163 51.7216 109.702 53.0163 108.078 53.9968C106.129 55.2035 104.267 55.8068 102.493 55.8068C101.719 55.8068 101.082 55.6434 100.582 55.3166C100.107 54.9646 99.8701 54.2733 99.8701 53.2426C99.8701 52.2119 100.32 50.804 101.219 49.0191C102.119 47.2091 102.806 45.8641 103.28 44.9842C102.931 45.0596 102.631 45.0973 102.381 45.0973C101.657 45.0973 101.294 44.8082 101.294 44.23C101.294 43.8026 101.594 43.501 102.194 43.325C102.269 43.325 102.381 43.3124 102.531 43.2873H104.705C105.154 42.7091 105.667 42.0429 106.241 41.2887C106.941 40.3836 107.415 39.9311 107.665 39.9311C107.915 39.9311 108.227 40.0317 108.602 40.2328C108.977 40.4339 109.164 40.6728 109.164 40.9493C109.164 41.2258 108.565 42.0429 107.365 43.4004C108.015 43.4255 108.865 43.4381 109.914 43.4381Z" fill="#18181B"/>
<path d="M118.904 55.7691C117.03 55.7691 116.093 54.7258 116.093 52.6392C116.093 51.5834 116.368 50.4269 116.917 49.17C117.467 47.913 118.067 46.8571 118.716 46.0024C118.591 46.0275 118.429 46.0401 118.229 46.0401C117.629 46.0401 117.13 45.6127 116.73 44.7579L113.957 48.3781C112.408 50.3138 111.508 51.2817 111.258 51.2817C111.133 51.2817 111.071 51.2314 111.071 51.1309C111.071 50.8795 111.283 50.5149 111.708 50.0373C113.882 47.4982 115.418 45.3487 116.318 43.589C116.892 41.4018 117.617 40.3082 118.491 40.3082C119.066 40.3082 119.353 40.5596 119.353 41.0624C119.353 41.5652 119.041 42.2063 118.416 42.9856L117.517 44.1923C117.517 44.7202 117.904 44.9842 118.679 44.9842C119.128 44.9842 119.628 44.8208 120.178 44.494L121.152 43.8906C121.202 43.8655 121.327 43.8529 121.527 43.8529C121.727 43.8529 121.939 43.9786 122.164 44.23C122.389 44.4814 122.464 44.7077 122.389 44.9088L119.803 48.1895C118.204 50.251 117.405 51.885 117.405 53.0917C117.405 54.2733 117.954 54.8641 119.054 54.8641C120.203 54.8641 121.614 54.2482 123.288 53.0163C124.288 52.2873 125.2 51.4702 126.024 50.5652C126.799 49.6602 127.223 49.2077 127.298 49.2077C127.473 49.2077 127.561 49.3082 127.561 49.5093C127.561 49.6853 127.448 49.899 127.223 50.1504L126.024 51.5079C125.35 52.2119 124.6 52.8906 123.776 53.5443C121.802 55.0275 120.178 55.7691 118.904 55.7691Z" fill="#18181B"/>
<path d="M135.789 47.5862C135.789 48.466 134.952 49.9367 133.278 51.9982C131.304 54.4367 129.618 55.656 128.219 55.656H127.619C126.969 55.656 126.457 55.3166 126.082 54.6378C125.783 54.1602 125.633 53.6322 125.633 53.054C125.633 51.5457 126.72 49.4339 128.893 46.7188C131.092 43.9786 132.866 42.6085 134.215 42.6085C135.489 42.6085 136.126 43.2873 136.126 44.6448C136.126 44.9968 136.064 45.4493 135.939 46.0024C135.964 46.0778 136.201 46.1155 136.651 46.1155C137.101 46.1155 137.788 45.8767 138.712 45.399C138.687 45.8264 137.7 46.4423 135.751 47.2468C135.776 47.3473 135.789 47.4605 135.789 47.5862ZM133.353 45.6253C132.503 45.6253 131.292 46.6309 129.718 48.642C128.169 50.6532 127.394 52.1364 127.394 53.0917C127.394 54.0471 127.694 54.5247 128.294 54.5247C129.368 54.5247 130.73 53.5443 132.379 51.5834C134.028 49.6225 134.852 48.2146 134.852 47.3599C134.452 47.1336 133.953 46.5554 133.353 45.6253Z" fill="#18181B"/>
<path d="M154.462 55.1281C152.763 55.1281 151.913 54.3362 151.913 52.7524C151.913 51.8473 152.313 50.6155 153.113 49.0568C153.912 47.473 154.749 46.1406 155.623 45.0596C154.074 45.8138 152.288 47.1839 150.264 49.17C148.241 51.1309 146.829 53.1923 146.029 55.3543C145.905 55.5554 145.692 55.656 145.392 55.656C144.793 55.656 144.493 55.3166 144.493 54.6378C144.743 53.2552 145.305 51.6714 146.179 49.8864C146.454 49.3082 147.266 47.6239 148.615 44.8334C146.667 46.1155 145.005 47.4982 143.631 48.9814C142.282 50.4395 141.02 51.9102 139.846 53.3934C138.696 54.8767 138.047 55.6183 137.897 55.6183C137.572 55.6183 137.285 55.4674 137.035 55.1658C136.81 54.8641 136.698 54.5624 136.698 54.2607C136.698 53.8082 137.347 52.149 138.647 49.2831L136.398 51.6588C135.848 52.2119 135.511 52.4884 135.386 52.4884C135.236 52.4884 135.161 52.413 135.161 52.2621C135.161 52.0862 135.261 51.8976 135.461 51.6965C136.385 50.7663 137.21 49.8362 137.934 48.906C138.659 47.9758 139.858 46.3166 141.532 43.9283C141.807 43.5512 142.194 43.3627 142.694 43.3627C143.194 43.3627 143.444 43.6015 143.444 44.0792C143.444 44.2552 142.781 45.487 141.457 47.7747C140.133 50.0373 139.396 51.4577 139.246 52.0359C140.271 50.9046 141.807 49.3836 143.856 47.473C146.929 44.6071 148.953 43.1741 149.927 43.1741C150.227 43.1741 150.502 43.2621 150.752 43.4381C151.001 43.6141 151.126 43.8152 151.126 44.0415C151.126 44.2426 150.639 45.1853 149.665 46.8697C148.715 48.6043 148.191 49.635 148.091 49.9619C150.864 47.6239 152.251 46.4423 152.251 46.4172C154.599 44.582 156.286 43.6644 157.31 43.6644C157.61 43.6644 157.885 43.7649 158.134 43.966C158.409 44.142 158.547 44.3557 158.547 44.6071C158.547 44.6574 157.735 45.7258 156.111 47.8124C154.487 49.8739 153.575 51.5708 153.375 52.9032C153.325 53.3557 153.412 53.6951 153.637 53.9214C153.862 54.1476 154.262 54.2607 154.836 54.2607C155.436 54.2607 156.298 53.8585 157.422 53.054C158.572 52.2244 159.733 51.1183 160.908 49.7356C161.357 49.2328 161.657 48.9814 161.807 48.9814C161.982 48.9814 162.069 49.0443 162.069 49.17C162.069 49.3459 161.957 49.5471 161.732 49.7733C160.508 51.2565 159.184 52.5261 157.76 53.582C156.361 54.6127 155.261 55.1281 154.462 55.1281Z" fill="#18181B"/>
<path d="M172.67 44.3054L173.195 44.1923C173.47 44.1923 173.732 44.3054 173.982 44.5317C174.232 44.7579 174.357 44.9339 174.357 45.0596C174.357 45.1853 173.582 46.4046 172.033 48.7174C170.484 51.0052 169.709 52.6015 169.709 53.5065C169.709 53.582 169.722 53.6574 169.747 53.7328C169.872 54.311 170.147 54.6001 170.571 54.6001C171.871 54.6001 174.244 52.4381 177.692 48.1141C177.767 48.0135 177.854 47.9633 177.954 47.9633C178.054 47.9633 178.104 48.0638 178.104 48.2649C178.104 48.4409 177.992 48.6797 177.767 48.9814C174.569 53.2803 172.133 55.4297 170.459 55.4297C170.234 55.4297 170.022 55.392 169.822 55.3166C168.723 54.8892 168.173 54.0596 168.173 52.8278C168.173 52.4004 168.223 51.973 168.323 51.5457L165.999 53.8082C164.525 55.1155 163.451 55.7691 162.776 55.7691C162.127 55.7691 161.502 55.5554 160.902 55.1281C160.228 54.6253 159.891 53.9591 159.891 53.1295C159.891 51.2943 161.165 49.1071 163.713 46.568C166.262 44.0038 168.598 42.7216 170.721 42.7216C171.546 42.7216 172.095 43.0107 172.37 43.589C172.445 43.7901 172.508 43.966 172.558 44.1169C172.608 44.2426 172.645 44.3054 172.67 44.3054ZM161.465 53.582C161.465 54.487 161.777 54.9395 162.402 54.9395C163.851 54.9395 165.824 53.3431 168.323 50.1504L172.295 44.6448C172.095 44.2929 171.771 44.1169 171.321 44.1169C169.797 44.1169 167.773 45.311 165.25 47.6993C162.726 50.0624 161.465 52.0233 161.465 53.582Z" fill="#18181B"/>
<defs>
<filter id="filter0_d_2436_1062" x="0" y="0.321777" width="228.277" height="103.322" filterUnits="userSpaceOnUse" color-interpolation-filters="sRGB">
<feFlood flood-opacity="0" result="BackgroundImageFix"/>
<feColorMatrix in="SourceAlpha" type="matrix" values="0 0 0 0 0 0 0 0 0 0 0 0 0 0 0 0 0 0 127 0" result="hardAlpha"/>
<feOffset dy="7"/>
<feGaussianBlur stdDeviation="10"/>
<feComposite in2="hardAlpha" operator="out"/>
<feColorMatrix type="matrix" values="0 0 0 0 0 0 0 0 0 0 0 0 0 0 0 0 0 0 0.07 0"/>
<feBlend mode="normal" in2="BackgroundImageFix" result="effect1_dropShadow_2436_1062"/>
<feBlend mode="normal" in="SourceGraphic" in2="effect1_dropShadow_2436_1062" result="shape"/>
</filter>
</defs>
</svg>
