<svg width="229" height="104" viewBox="0 0 229 104" fill="none" xmlns="http://www.w3.org/2000/svg">
<g filter="url(#filter0_d_2436_1044)">
<rect x="20.4463" y="13.3218" width="188.277" height="63.3218" rx="10" fill="white"/>
</g>
<path d="M46.9563 39.9514L48.7884 40.8675C49.1256 41.0148 49.4926 41.0811 49.86 41.0612C50.2274 41.0414 50.5851 40.9358 50.9044 40.753L52.6358 39.6262C52.9337 39.41 53.1761 39.1262 53.3433 38.7983C53.5105 38.4703 53.5977 38.1073 53.5976 37.7392L53.4877 35.6735C53.4476 35.3083 53.3223 34.9576 53.1218 34.6497C52.9213 34.3419 52.6513 34.0854 52.3334 33.901L50.5014 32.962C50.1648 32.813 49.7978 32.7453 49.4302 32.7644C49.0626 32.7835 48.7046 32.8888 48.3853 33.072L46.654 34.1987C46.3566 34.4155 46.1145 34.6993 45.9474 35.0272C45.7803 35.355 45.6928 35.7178 45.6921 36.0857L45.8021 38.1514C45.8377 38.5216 45.9609 38.8779 46.1616 39.1909C46.3623 39.504 46.6347 39.7647 46.9563 39.9514Z" fill="#34D399"/>
<path d="M58.0076 42.6268L56.1755 41.6879C55.8391 41.5406 55.4728 41.4743 55.1062 41.4942C54.7395 41.514 54.3826 41.6196 54.064 41.8024L52.3144 42.9291C52.0181 43.1469 51.7768 43.431 51.6098 43.7586C51.4428 44.0862 51.3546 44.4484 51.3525 44.8161L51.4625 46.8818C51.5026 47.247 51.6279 47.5978 51.8284 47.9056C52.0289 48.2135 52.2989 48.47 52.6167 48.6544L54.4488 49.5704C54.7846 49.7194 55.1508 49.7871 55.5177 49.768C55.8846 49.7489 56.2417 49.6435 56.5602 49.4605L58.2961 48.3337C58.5926 48.115 58.8338 47.8301 59.0008 47.5017C59.1678 47.1733 59.2559 46.8105 59.258 46.4421L59.148 44.381C59.106 44.0205 58.9812 43.6746 58.7834 43.3703C58.5856 43.066 58.32 42.8115 58.0076 42.6268Z" fill="#34D399"/>
<path d="M63.6603 51.3381L61.8283 50.422C61.4917 50.2729 61.1247 50.2053 60.7571 50.2244C60.3895 50.2435 60.0315 50.3488 59.7122 50.532L57.9809 51.6587C57.684 51.8759 57.4423 52.1599 57.2753 52.4877C57.1082 52.8154 57.0205 53.1779 57.019 53.5457L57.129 55.6114C57.1728 55.9707 57.299 56.3151 57.4976 56.6177C57.6961 56.9204 57.9619 57.1732 58.2741 57.3565L60.1061 58.2725C60.4433 58.4198 60.8103 58.4861 61.1777 58.4662C61.5452 58.4464 61.9028 58.3408 62.2222 58.158L63.9581 57.0313C64.2546 56.814 64.4958 56.5299 64.6621 56.2021C64.8284 55.8742 64.9152 55.5118 64.9154 55.1442L64.8191 53.1152C64.7796 52.7486 64.6541 52.3966 64.4527 52.0878C64.2513 51.779 63.9798 51.5221 63.6603 51.3381Z" fill="#34D399"/>
<path d="M50.1621 46.2076L50.0751 44.5999C50.0772 44.2322 50.1653 43.87 50.3323 43.5424C50.4993 43.2147 50.7406 42.9307 51.0369 42.7129L54.4125 40.519C54.731 40.3362 55.088 40.2306 55.4547 40.2108C55.8214 40.1909 56.1876 40.2572 56.524 40.4045L57.9622 41.1373C58.2988 41.2863 58.6657 41.3541 59.0333 41.335C59.401 41.3159 59.7589 41.2105 60.0782 41.0274L61.8096 39.8961C62.1067 39.679 62.3486 39.3952 62.5156 39.0673C62.6827 38.7395 62.7704 38.377 62.7714 38.009L62.6615 35.9479C62.6221 35.5819 62.4971 35.2303 62.2965 34.9216C62.096 34.6128 61.8256 34.3557 61.5073 34.1708L59.6752 33.2319C59.338 33.0846 58.971 33.0182 58.6036 33.0381C58.2361 33.058 57.8785 33.1636 57.5591 33.3464L55.7912 34.4548C55.4946 34.6721 55.2534 34.9561 55.0871 35.284C54.9208 35.6118 54.8341 35.9742 54.8339 36.3418L54.9164 37.9495C54.9162 38.3171 54.8294 38.6795 54.6631 39.0074C54.4968 39.3352 54.2556 39.6193 53.9591 39.8365L50.5835 42.0304C50.2642 42.2135 49.9062 42.3189 49.5386 42.338C49.1709 42.3571 48.804 42.2894 48.4674 42.1404L47.0338 41.4121C46.6972 41.2631 46.3303 41.1954 45.9627 41.2145C45.595 41.2336 45.2371 41.3389 44.9178 41.522L43.1865 42.6488C42.8891 42.8655 42.647 43.1494 42.4799 43.4773C42.3127 43.8052 42.2253 44.1678 42.2246 44.5358L42.3345 46.6015C42.3736 46.9676 42.4985 47.3194 42.699 47.6282C42.8995 47.937 43.1701 48.1941 43.4887 48.3786L45.3208 49.2946C45.658 49.4419 46.025 49.5083 46.3924 49.4884C46.7598 49.4685 47.1175 49.363 47.4369 49.1801L49.1682 48.0534C49.4657 47.8439 49.7104 47.5681 49.8829 47.2477C50.0554 46.9274 50.151 46.5713 50.1621 46.2076Z" fill="#34D399"/>
<path d="M68.2953 44.6599C68.2545 44.2942 68.1289 43.9432 67.9285 43.6347C67.7281 43.3262 67.4585 43.0687 67.1411 42.8828L65.309 41.9667C64.9717 41.8198 64.6047 41.7536 64.2374 41.7735C63.87 41.7933 63.5123 41.8987 63.1929 42.0812L61.4616 43.2079C61.1647 43.4252 60.9231 43.7092 60.756 44.0369C60.5889 44.3647 60.5011 44.7271 60.4998 45.095L60.5868 46.7072C60.5854 47.0751 60.4976 47.4375 60.3305 47.7652C60.1635 48.093 59.9218 48.377 59.6249 48.5943L56.2539 50.7836C55.9345 50.9664 55.5769 51.072 55.2094 51.0919C54.842 51.1117 54.475 51.0454 54.1378 50.8981L52.6996 50.1653C52.3632 50.018 51.997 49.9517 51.6303 49.9715C51.2636 49.9915 50.9067 50.097 50.5881 50.2798L48.8385 51.4019C48.5422 51.6197 48.3009 51.9037 48.1339 52.2314C47.9669 52.559 47.8788 52.9212 47.8767 53.289L47.9866 55.3546C48.0267 55.7198 48.152 56.0705 48.3525 56.3784C48.553 56.6863 48.823 56.9428 49.1408 57.1272L50.9729 58.0661C51.3087 58.2151 51.6749 58.2828 52.0418 58.2637C52.4087 58.2446 52.7658 58.1392 53.0844 57.9562L54.8203 56.8294C55.1163 56.6114 55.3575 56.3273 55.5244 55.9997C55.6914 55.6721 55.7796 55.3101 55.7821 54.9424L55.6951 53.3302C55.6961 52.9622 55.7837 52.5997 55.9508 52.2719C56.1179 51.944 56.3598 51.6602 56.6569 51.4431L60.0279 49.2492C60.3473 49.0661 60.7053 48.9607 61.0729 48.9416C61.4405 48.9225 61.8074 48.9902 62.144 49.1393L63.5776 49.8676C63.9142 50.0166 64.2812 50.0843 64.6488 50.0652C65.0164 50.0461 65.3743 49.9408 65.6937 49.7576L67.4296 48.6309C67.7259 48.4133 67.9669 48.1292 68.1331 47.8015C68.2994 47.4737 68.3863 47.1114 68.3868 46.7439L68.2953 44.6599Z" fill="#34D399"/>
<path d="M74.4456 36.4029H81.3118L84.5323 49.4367L87.7527 36.4029H94.9228L88.3908 57.3055H80.6434L74.4456 36.4029Z" fill="#18181B"/>
<path d="M101.664 57.5486C99.9624 57.5486 98.6357 57.0017 97.6838 55.908C96.7318 54.8142 96.2558 53.3255 96.2558 51.4419V42.0843H102.697V51.1684C102.697 51.6343 102.818 51.9989 103.061 52.2622C103.325 52.5052 103.659 52.6267 104.064 52.6267C104.469 52.6267 104.884 52.5052 105.31 52.2622L105.644 56.4852C105.198 56.8295 104.611 57.0929 103.882 57.2751C103.173 57.4574 102.433 57.5486 101.664 57.5486ZM99.4763 39.8057C98.5243 39.8057 97.7141 39.512 97.0457 38.9246C96.3976 38.317 96.0735 37.5777 96.0735 36.7067C96.0735 35.8358 96.4178 35.1066 97.1065 34.5193C97.7952 33.9319 98.5851 33.6382 99.4763 33.6382C100.408 33.6382 101.208 33.942 101.876 34.5496C102.565 35.1573 102.909 35.8763 102.909 36.7067C102.909 37.5979 102.565 38.3372 101.876 38.9246C101.188 39.512 100.388 39.8057 99.4763 39.8057Z" fill="#18181B"/>
<path d="M107.413 42.297H113.824V45.3959C114.289 44.2009 114.917 43.3198 115.707 42.7527C116.517 42.1653 117.459 41.8716 118.533 41.8716L119.414 46.8238C117.49 46.8238 116.072 47.0365 115.16 47.4619C114.269 47.8669 113.824 48.5151 113.824 49.4063V57.3055H107.413V42.297Z" fill="#18181B"/>
<path d="M128.962 57.5486C127.261 57.5486 125.742 57.2144 124.405 56.546C123.089 55.8776 122.056 54.956 121.306 53.7812C120.577 52.5862 120.212 51.2191 120.212 49.6797C120.212 48.1404 120.587 46.7833 121.337 45.6086C122.086 44.4136 123.119 43.492 124.436 42.8438C125.772 42.1957 127.291 41.8716 128.993 41.8716C130.714 41.8716 132.234 42.2058 133.55 42.8742C134.887 43.5224 135.92 44.4338 136.649 45.6086C137.378 46.7833 137.743 48.1404 137.743 49.6797C137.743 51.2393 137.368 52.6166 136.619 53.8116C135.889 54.9864 134.856 55.908 133.52 56.5764C132.203 57.2245 130.684 57.5486 128.962 57.5486ZM129.023 52.9913C129.854 52.9913 130.532 52.6875 131.059 52.0799C131.606 51.452 131.879 50.6519 131.879 49.6797C131.879 48.7075 131.606 47.9176 131.059 47.3099C130.532 46.6821 129.854 46.3681 129.023 46.3681C128.193 46.3681 127.504 46.6821 126.957 47.3099C126.431 47.9176 126.167 48.7075 126.167 49.6797C126.167 50.6519 126.431 51.452 126.957 52.0799C127.504 52.6875 128.193 52.9913 129.023 52.9913Z" fill="#18181B"/>
<path d="M148.618 64.2629C147.504 64.2629 146.441 64.1515 145.428 63.9287L145.914 59.4322C146.704 59.5538 147.433 59.6145 148.101 59.6145C149.357 59.6145 150.309 59.2398 150.957 58.4904C151.605 57.7612 151.99 56.5257 152.112 54.7838C150.917 56.465 149.094 57.3055 146.643 57.3055C145.306 57.3055 144.071 56.9612 142.937 56.2725C141.823 55.5839 140.931 54.6522 140.263 53.4774C139.615 52.3027 139.291 51.0165 139.291 49.619C139.291 48.2011 139.615 46.9049 140.263 45.7301C140.911 44.5351 141.792 43.5933 142.906 42.9046C144.04 42.2159 145.276 41.8716 146.613 41.8716C147.848 41.8716 148.922 42.1957 149.833 42.8438C150.765 43.4717 151.373 44.3224 151.656 45.3959V41.8716H158.067V53.4471C158.067 56.9916 157.256 59.6753 155.636 61.4982C154.036 63.3414 151.697 64.2629 148.618 64.2629ZM148.618 52.7483C149.428 52.7483 150.127 52.4647 150.714 51.8976C151.302 51.3102 151.616 50.6215 151.656 49.8316V49.5886C151.616 48.8189 151.292 48.1404 150.684 47.553C150.097 46.9656 149.408 46.6719 148.618 46.6719C147.788 46.6719 147.079 46.9757 146.491 47.5834C145.904 48.1708 145.61 48.8797 145.61 49.7101C145.61 50.5405 145.904 51.2596 146.491 51.8672C147.079 52.4546 147.788 52.7483 148.618 52.7483Z" fill="#18181B"/>
<path d="M167.859 57.5486C166.543 57.5486 165.307 57.2043 164.152 56.5156C163.018 55.8067 162.107 54.8547 161.418 53.6597C160.729 52.4445 160.385 51.0975 160.385 49.619C160.385 48.1606 160.729 46.8441 161.418 45.6693C162.107 44.4743 163.028 43.5426 164.183 42.8742C165.337 42.2058 166.563 41.8716 167.859 41.8716C168.912 41.8716 169.884 42.1653 170.776 42.7527C171.687 43.3401 172.376 44.2211 172.842 45.3959V41.8716H179.222V57.3055H172.842V54.48C171.829 56.5257 170.168 57.5486 167.859 57.5486ZM169.834 52.7483C170.644 52.7483 171.333 52.4647 171.9 51.8976C172.487 51.3102 172.801 50.6215 172.842 49.8316V49.5886C172.801 48.7784 172.477 48.0897 171.869 47.5226C171.282 46.9555 170.604 46.6719 169.834 46.6719C168.983 46.6719 168.254 46.9757 167.646 47.5834C167.059 48.1708 166.765 48.8797 166.765 49.7101C166.765 50.5608 167.069 51.2798 167.677 51.8672C168.284 52.4546 169.003 52.7483 169.834 52.7483Z" fill="#18181B"/>
<path d="M182.299 42.297H188.406V45.3959C189.581 43.0464 191.444 41.8716 193.996 41.8716C195.941 41.8716 197.46 42.5704 198.553 43.968C199.667 45.3453 200.224 47.2593 200.224 49.7101V57.3055H193.844V49.0721C193.844 48.2011 193.652 47.5327 193.267 47.0669C192.902 46.601 192.386 46.3681 191.717 46.3681C191.231 46.3681 190.755 46.5301 190.29 46.8542C189.824 47.158 189.439 47.6036 189.135 48.191C188.851 48.7784 188.71 49.4468 188.71 50.1962V57.3055H182.299V42.297Z" fill="#18181B"/>
<defs>
<filter id="filter0_d_2436_1044" x="0.446289" y="0.321777" width="228.277" height="103.322" filterUnits="userSpaceOnUse" color-interpolation-filters="sRGB">
<feFlood flood-opacity="0" result="BackgroundImageFix"/>
<feColorMatrix in="SourceAlpha" type="matrix" values="0 0 0 0 0 0 0 0 0 0 0 0 0 0 0 0 0 0 127 0" result="hardAlpha"/>
<feOffset dy="7"/>
<feGaussianBlur stdDeviation="10"/>
<feComposite in2="hardAlpha" operator="out"/>
<feColorMatrix type="matrix" values="0 0 0 0 0 0 0 0 0 0 0 0 0 0 0 0 0 0 0.07 0"/>
<feBlend mode="normal" in2="BackgroundImageFix" result="effect1_dropShadow_2436_1044"/>
<feBlend mode="normal" in="SourceGraphic" in2="effect1_dropShadow_2436_1044" result="shape"/>
</filter>
</defs>
</svg>
