<svg width="229" height="104" viewBox="0 0 229 104" fill="none" xmlns="http://www.w3.org/2000/svg">
<g filter="url(#filter0_d_2436_1033)">
<rect x="20.1384" y="13" width="188.277" height="63.3218" rx="10" fill="white"/>
</g>
<path d="M67.1126 41.5896L67.0939 41.571C67.0924 41.5699 67.0912 41.5685 67.0905 41.5669L55.4096 29.8857L43.7288 41.5666C43.7275 41.568 43.7267 41.5698 43.7254 41.5706L43.7061 41.5893C41.92 43.3855 40.7854 45.7272 40.4829 48.2422C40.1804 50.7572 40.7272 53.3012 42.0365 55.4697C43.3457 57.6383 45.3423 59.307 47.7087 60.2105C50.0751 61.1139 52.6757 61.2005 55.0969 60.4562C55.3006 60.3939 55.5184 60.3939 55.7222 60.4562C58.1432 61.2002 60.7436 61.1136 63.1099 60.21C65.4762 59.3064 67.4725 57.6378 68.7817 55.4694C70.0908 53.301 70.6377 50.7572 70.3353 48.2423C70.0329 45.7275 68.8985 43.3858 67.1126 41.5896ZM47.8824 49.2924C47.8255 49.3493 47.7804 49.4168 47.7496 49.491C47.7189 49.5652 47.703 49.6449 47.7031 49.7253C47.7238 51.7869 48.3065 53.8037 49.3883 55.5589C49.4128 55.5987 49.4242 55.6453 49.4207 55.6919C49.4172 55.7385 49.3991 55.7828 49.3688 55.8186C49.3386 55.8543 49.2979 55.8795 49.2525 55.8907C49.207 55.9018 49.1592 55.8984 49.1159 55.8807C48.3027 55.5387 47.5639 55.0414 46.9409 54.4168C45.6641 53.1398 44.9463 51.4082 44.9451 49.6023C44.9439 47.7965 45.6595 46.064 46.9347 44.7854L55.4096 36.3113L63.8841 44.7854C65.1594 46.0638 65.8753 47.7964 65.874 49.6023C65.873 51.4082 65.1551 53.1398 63.8782 54.4168C63.2551 55.0414 62.5164 55.5387 61.7033 55.8807C61.6598 55.8984 61.612 55.9018 61.5666 55.8907C61.5212 55.8795 61.4805 55.8542 61.4502 55.8186C61.42 55.7828 61.4018 55.7385 61.3983 55.6917C61.3948 55.6451 61.4062 55.5985 61.4307 55.5587C62.5128 53.8037 63.0957 51.7869 63.1168 49.7253C63.1168 49.6449 63.1008 49.5652 63.0699 49.4909C63.039 49.4165 62.9937 49.3491 62.9367 49.2922L58.9283 45.0405C58.8883 45.0072 58.8381 44.9889 58.786 44.9889C58.7341 44.9889 58.6838 45.0072 58.6439 45.0405C58.604 45.0737 58.5771 45.12 58.5678 45.1711C58.5584 45.2222 58.5673 45.2749 58.593 45.3201C60.1498 48.1374 58.8111 52.184 56.5786 54.4168L56.5668 54.4286C56.2587 54.7334 55.8427 54.9043 55.4093 54.9041C54.9758 54.904 54.56 54.7328 54.252 54.4278L54.2412 54.4168C52.0079 52.184 50.6698 48.1378 52.2269 45.3207C52.2525 45.2755 52.2614 45.2228 52.2521 45.1717C52.2428 45.1206 52.2159 45.0743 52.176 45.0411C52.1361 45.0078 52.0858 44.9895 52.0338 44.9895C51.9819 44.9895 51.9315 45.0078 51.8917 45.0411L47.8824 49.2924Z" fill="url(#paint0_linear_2436_1033)"/>
<path d="M95.8485 39.6418H99.7144L95.7044 53.0405H91.2862L89.4133 45.1166L87.5163 53.0405H83.0981L79.0881 39.6418H83.1942L85.2832 49.0545L87.3482 39.6418H91.6944L93.7594 49.0545L95.8485 39.6418Z" fill="#18181B"/>
<path d="M109.756 48.7904C110.349 48.2141 110.645 47.3977 110.645 46.3412C110.645 45.2846 110.349 44.4762 109.756 43.916C109.164 43.3397 108.484 43.0515 107.715 43.0515C106.947 43.0515 106.267 43.3397 105.674 43.916C105.082 44.4922 104.786 45.3087 104.786 46.3652C104.786 47.4217 105.082 48.2381 105.674 48.8144C106.267 49.3747 106.947 49.6548 107.715 49.6548C108.484 49.6548 109.164 49.3667 109.756 48.7904ZM102.385 51.2876C101.2 50.007 100.608 48.3662 100.608 46.3652C100.608 44.3642 101.2 42.7234 102.385 41.4427C103.569 40.1461 105.01 39.4978 106.707 39.4978C108.42 39.4978 109.732 40.1301 110.645 41.3947V39.6418H114.751V53.0405H110.645V51.0955C109.652 52.5042 108.324 53.2086 106.659 53.2086C104.994 53.2086 103.569 52.5683 102.385 51.2876Z" fill="#18181B"/>
<path d="M116.654 39.6418H121.024L124.073 49.6068L127.123 39.6418H131.493L126.739 53.0405H121.408L116.654 39.6418Z" fill="#18181B"/>
<path d="M139.08 53.2086C137.127 53.2086 135.527 52.5843 134.278 51.3357C133.029 50.071 132.405 48.3982 132.405 46.3172C132.405 44.2361 133.021 42.5793 134.254 41.3467C135.503 40.1141 137.111 39.4978 139.08 39.4978C141.049 39.4978 142.682 40.1061 143.979 41.3227C145.275 42.5393 145.924 44.2281 145.924 46.3892C145.924 46.8534 145.892 47.2856 145.828 47.6858H136.607C136.687 48.2781 136.951 48.7664 137.399 49.1506C137.848 49.5187 138.328 49.7028 138.84 49.7028C139.368 49.7028 139.761 49.6548 140.017 49.5588C140.273 49.4467 140.457 49.3427 140.569 49.2466C140.697 49.1346 140.857 48.9585 141.049 48.7183H145.492C145.107 50.063 144.339 51.1516 143.186 51.984C142.034 52.8004 140.665 53.2086 139.08 53.2086ZM141.65 45.1166C141.586 44.4922 141.313 43.988 140.833 43.6038C140.353 43.2036 139.785 43.0035 139.128 43.0035C138.472 43.0035 137.92 43.2036 137.472 43.6038C137.023 43.988 136.743 44.4922 136.631 45.1166H141.65Z" fill="#18181B"/>
<path d="M152.667 39.6418V42.1391C153.628 40.3782 154.908 39.4978 156.509 39.4978V43.6758H155.501C154.556 43.6758 153.844 43.9 153.363 44.3482C152.899 44.7964 152.667 45.5808 152.667 46.7013V53.0405H148.561V39.6418H152.667Z" fill="#18181B"/>
<path d="M162.484 38.1291C162.02 38.5933 161.451 38.8254 160.779 38.8254C160.107 38.8254 159.538 38.5933 159.074 38.1291C158.61 37.6648 158.378 37.0966 158.378 36.4242C158.378 35.7359 158.61 35.1596 159.074 34.6954C159.538 34.2311 160.107 33.999 160.779 33.999C161.451 33.999 162.02 34.2311 162.484 34.6954C162.948 35.1596 163.18 35.7359 163.18 36.4242C163.18 37.0966 162.948 37.6648 162.484 38.1291ZM158.738 53.0405V39.6418H162.844V53.0405H158.738Z" fill="#18181B"/>
<path d="M174.497 48.8384C175.041 48.2621 175.313 47.4297 175.313 46.3412C175.313 45.2526 175.033 44.4282 174.473 43.8679C173.913 43.2916 173.248 43.0035 172.48 43.0035C171.711 43.0035 171.047 43.2916 170.487 43.8679C169.943 44.4282 169.67 45.2526 169.67 46.3412C169.67 47.4297 169.951 48.2621 170.511 48.8384C171.087 49.4147 171.759 49.7028 172.528 49.7028C173.296 49.7028 173.953 49.4147 174.497 48.8384ZM167.509 51.3116C166.165 50.047 165.492 48.3822 165.492 46.3172C165.492 44.2521 166.165 42.6033 167.509 41.3707C168.854 40.1221 170.519 39.4978 172.504 39.4978C174.489 39.4978 176.146 40.1221 177.474 41.3707C178.819 42.6033 179.491 44.2521 179.491 46.3172C179.491 48.3822 178.827 50.047 177.498 51.3116C176.17 52.5763 174.513 53.2086 172.528 53.2086C170.543 53.2086 168.87 52.5763 167.509 51.3116Z" fill="#18181B"/>
<defs>
<filter id="filter0_d_2436_1033" x="0.138428" y="0" width="228.277" height="103.322" filterUnits="userSpaceOnUse" color-interpolation-filters="sRGB">
<feFlood flood-opacity="0" result="BackgroundImageFix"/>
<feColorMatrix in="SourceAlpha" type="matrix" values="0 0 0 0 0 0 0 0 0 0 0 0 0 0 0 0 0 0 127 0" result="hardAlpha"/>
<feOffset dy="7"/>
<feGaussianBlur stdDeviation="10"/>
<feComposite in2="hardAlpha" operator="out"/>
<feColorMatrix type="matrix" values="0 0 0 0 0 0 0 0 0 0 0 0 0 0 0 0 0 0 0.07 0"/>
<feBlend mode="normal" in2="BackgroundImageFix" result="effect1_dropShadow_2436_1033"/>
<feBlend mode="normal" in="SourceGraphic" in2="effect1_dropShadow_2436_1033" result="shape"/>
</filter>
<linearGradient id="paint0_linear_2436_1033" x1="55.4091" y1="29.8857" x2="55.4091" y2="60.9575" gradientUnits="userSpaceOnUse">
<stop stop-color="#F0B645"/>
<stop offset="1" stop-color="#D694FF"/>
</linearGradient>
</defs>
</svg>
