<svg width="229" height="104" viewBox="0 0 229 104" fill="none" xmlns="http://www.w3.org/2000/svg">
<g filter="url(#filter0_d_2436_1038)">
<rect x="20.4153" y="13" width="188.277" height="63.3218" rx="10" fill="white"/>
</g>
<path d="M79.0984 35.593C75.1477 35.593 67.234 32.3904 67.234 28.4395H67.1755C67.1755 31.6016 68.4316 34.6342 70.6675 36.8702C72.9034 39.1062 75.936 40.3624 79.0981 40.3625C80.9954 40.3625 82.815 41.1162 84.1566 42.4578C85.4983 43.7993 86.252 45.619 86.252 47.5162C86.2524 49.4135 85.499 51.2334 84.1577 52.5752C82.8163 53.9171 80.9969 54.6711 79.0996 54.6716C77.2022 54.6719 75.3824 53.9185 74.0406 52.5771C72.6987 51.2358 71.9446 49.4163 71.9443 47.5191C71.9442 45.9533 71.6358 44.4028 71.0365 42.9563C70.4373 41.5097 69.559 40.1953 68.4518 39.0882C67.3446 37.9811 66.0302 37.1029 64.5836 36.5037C63.137 35.9046 61.5865 35.5962 60.0208 35.5963V35.6543C63.9709 35.6543 67.1736 43.5646 67.1751 47.5161H67.1743C67.1743 49.8743 67.8735 52.1795 69.1836 54.1402C70.4937 56.101 72.3558 57.6292 74.5344 58.5316C76.713 59.4342 79.1103 59.6704 81.4233 59.2104C83.736 58.7504 85.8606 57.6149 87.5282 55.9476C89.1956 54.2802 90.3313 52.1558 90.7915 49.8429C91.2517 47.5301 91.0157 45.1328 90.1134 42.9541C89.2111 40.7754 87.683 38.9131 85.7224 37.6029C83.7617 36.2926 81.4565 35.5932 79.0984 35.593Z" fill="url(#paint0_linear_2436_1038)"/>
<path d="M102.692 57.7369C102.692 58.1069 103.025 58.4399 103.395 58.4399H105.245C105.689 58.4399 106.281 58.2919 106.281 57.7369V46.7109H113.348V57.7369C113.348 58.1069 113.681 58.4399 114.051 58.4399H116.16C116.53 58.4399 116.863 58.1069 116.863 57.7369V44.3429C116.863 43.9729 116.53 43.6399 116.16 43.6399H106.281V39.0519C106.281 36.4989 107.835 35.4259 109.352 35.4259C110.98 35.4259 112.867 36.4249 113.2 36.6099C113.607 36.8319 113.94 36.8689 114.162 36.4249L115.087 34.7599C115.272 34.4639 115.198 34.0199 114.902 33.8349C114.125 33.3539 111.831 32.1699 109.352 32.1699C105.689 32.1699 102.692 34.6489 102.692 39.0519V43.6399H100.953C100.546 43.6399 100.25 43.9359 100.25 44.3429V46.0079C100.25 46.3779 100.546 46.7109 100.953 46.7109H102.692V57.7369Z" fill="#18181B"/>
<path d="M121.671 57.7369C121.671 58.1069 122.004 58.4399 122.374 58.4399H124.15C124.742 58.4399 125.149 58.3659 125.149 57.7369V48.3389C125.297 48.0799 126.333 46.5259 128.479 46.5259C128.96 46.5259 129.515 46.6739 129.737 46.7849C130.07 46.9329 130.44 46.8589 130.625 46.4519L131.513 44.6389C131.92 43.6399 130.218 43.2699 128.812 43.2699C126.111 43.2699 124.742 45.0459 124.483 45.4159L124.076 44.1579C124.002 43.8619 123.706 43.6399 123.447 43.6399H122.374C122.004 43.6399 121.671 43.9729 121.671 44.3429V57.7369Z" fill="#18181B"/>
<path d="M132.919 51.0399C132.919 55.2949 135.879 58.8099 140.356 58.8099C142.835 58.8099 144.759 57.8849 145.832 56.9599C146.276 56.5899 146.165 56.2939 145.906 55.9979L144.87 54.5919C144.574 54.2219 144.315 54.3699 143.871 54.6289C143.131 55.1099 141.91 55.7019 140.578 55.7019C138.173 55.7019 136.434 53.7409 136.323 51.7429H146.387C146.72 51.7429 147.016 51.4839 147.053 51.1139C147.09 50.8549 147.127 50.3739 147.127 50.1149C147.127 46.1559 144.167 43.2699 140.319 43.2699C135.879 43.2699 132.919 46.8589 132.919 51.0399ZM136.508 49.4119C136.73 47.5619 138.284 46.1189 140.282 46.1189C142.095 46.1189 143.575 47.6359 143.686 49.4119H136.508Z" fill="#18181B"/>
<path d="M150.686 57.7369C150.686 58.1069 151.019 58.4399 151.389 58.4399H153.498C153.868 58.4399 154.201 58.1069 154.201 57.7369V33.2429C154.201 32.8729 153.868 32.5399 153.498 32.5399H151.389C151.019 32.5399 150.686 32.8729 150.686 33.2429V57.7369Z" fill="#18181B"/>
<path d="M160.698 37.6089C161.919 37.6089 162.881 36.6469 162.881 35.4629C162.881 34.2419 161.919 33.2799 160.698 33.2799C159.514 33.2799 158.589 34.2419 158.589 35.4629C158.589 36.6469 159.514 37.6089 160.698 37.6089ZM158.996 57.7369C158.996 58.1069 159.329 58.4399 159.699 58.4399H161.808C162.178 58.4399 162.511 58.1069 162.511 57.7369V44.3429C162.511 43.9729 162.178 43.6399 161.808 43.6399H159.699C159.329 43.6399 158.996 43.9729 158.996 44.3429V57.7369Z" fill="#18181B"/>
<defs>
<filter id="filter0_d_2436_1038" x="0.415283" y="0" width="228.277" height="103.322" filterUnits="userSpaceOnUse" color-interpolation-filters="sRGB">
<feFlood flood-opacity="0" result="BackgroundImageFix"/>
<feColorMatrix in="SourceAlpha" type="matrix" values="0 0 0 0 0 0 0 0 0 0 0 0 0 0 0 0 0 0 127 0" result="hardAlpha"/>
<feOffset dy="7"/>
<feGaussianBlur stdDeviation="10"/>
<feComposite in2="hardAlpha" operator="out"/>
<feColorMatrix type="matrix" values="0 0 0 0 0 0 0 0 0 0 0 0 0 0 0 0 0 0 0.07 0"/>
<feBlend mode="normal" in2="BackgroundImageFix" result="effect1_dropShadow_2436_1038"/>
<feBlend mode="normal" in="SourceGraphic" in2="effect1_dropShadow_2436_1038" result="shape"/>
</filter>
<linearGradient id="paint0_linear_2436_1038" x1="75.5208" y1="28.4395" x2="75.5208" y2="59.4395" gradientUnits="userSpaceOnUse">
<stop stop-color="#E95E51"/>
<stop offset="1" stop-color="#FBA300"/>
</linearGradient>
</defs>
</svg>
