<svg width="229" height="104" viewBox="0 0 229 104" fill="none" xmlns="http://www.w3.org/2000/svg">
<g filter="url(#filter0_d_2436_1066)">
<rect x="20.2769" y="13.3218" width="188.277" height="63.3218" rx="10" fill="white"/>
</g>
<path d="M67.2503 41.9114L67.2316 41.8927C67.2301 41.8917 67.2289 41.8903 67.2281 41.8887L55.5473 30.2075L43.8665 41.8884C43.8652 41.8897 43.8644 41.8915 43.8631 41.8924L43.8438 41.9111C42.0577 43.7073 40.9231 46.049 40.6206 48.564C40.3181 51.079 40.8649 53.6229 42.1742 55.7915C43.4834 57.9601 45.48 59.6288 47.8464 60.5322C50.2128 61.4357 52.8134 61.5223 55.2346 60.7779C55.4383 60.7156 55.6561 60.7156 55.8599 60.7779C58.2809 61.5219 60.8813 61.4354 63.2476 60.5318C65.6139 59.6282 67.6102 57.9596 68.9193 55.7912C70.2285 53.6228 70.7754 51.079 70.473 48.5641C70.1706 46.0493 69.0362 43.7076 67.2503 41.9114ZM48.0201 49.6142C47.9632 49.671 47.9181 49.7386 47.8873 49.8128C47.8566 49.887 47.8407 49.9666 47.8408 50.047C47.8615 52.1087 48.4442 54.1255 49.526 55.8806C49.5505 55.9205 49.5619 55.9671 49.5584 56.0137C49.5549 56.0603 49.5368 56.1046 49.5065 56.1404C49.4763 56.1761 49.4356 56.2013 49.3902 56.2125C49.3447 56.2236 49.2969 56.2202 49.2536 56.2025C48.4404 55.8604 47.7016 55.3632 47.0785 54.7386C45.8018 53.4616 45.084 51.7299 45.0828 49.9241C45.0816 48.1183 45.7972 46.3858 47.0724 45.1072L55.5473 36.6331L64.0218 45.1072C65.2971 46.3856 66.0129 48.1181 66.0117 49.9241C66.0107 51.7299 65.2928 53.4616 64.0159 54.7386C63.3928 55.3632 62.6541 55.8604 61.841 56.2025C61.7975 56.2202 61.7497 56.2236 61.7043 56.2125C61.6589 56.2013 61.6182 56.176 61.5879 56.1404C61.5577 56.1046 61.5395 56.0603 61.536 56.0135C61.5325 55.9669 61.5439 55.9203 61.5684 55.8805C62.6505 54.1255 63.2334 52.1087 63.2545 50.047C63.2545 49.9666 63.2385 49.887 63.2076 49.8127C63.1767 49.7383 63.1314 49.6709 63.0744 49.614L59.0659 45.3623C59.026 45.3289 58.9758 45.3107 58.9237 45.3107C58.8718 45.3107 58.8215 45.3289 58.7816 45.3623C58.7417 45.3954 58.7148 45.4417 58.7055 45.4929C58.6961 45.544 58.705 45.5966 58.7307 45.6419C60.2875 48.4592 58.9488 52.5058 56.7162 54.7386L56.7045 54.7504C56.3963 55.0552 55.9804 55.2261 55.547 55.2259C55.1135 55.2258 54.6976 55.0546 54.3897 54.7496L54.3789 54.7386C52.1456 52.5058 50.8075 48.4596 52.3646 45.6425C52.3902 45.5972 52.3991 45.5446 52.3898 45.4935C52.3805 45.4423 52.3536 45.396 52.3137 45.3629C52.2738 45.3295 52.2235 45.3113 52.1715 45.3113C52.1196 45.3113 52.0692 45.3295 52.0293 45.3629L48.0201 49.6142Z" fill="#FF675E"/>
<path d="M95.9872 39.9636H99.8531L95.8431 53.3623H91.4249L89.5519 45.4383L87.655 53.3623H83.2368L79.2268 39.9636H83.3329L85.4219 49.3763L87.4869 39.9636H91.8331L93.8981 49.3763L95.9872 39.9636Z" fill="#18181B"/>
<path d="M109.895 49.1122C110.487 48.5359 110.784 47.7195 110.784 46.6629C110.784 45.6064 110.487 44.798 109.895 44.2377C109.303 43.6615 108.623 43.3733 107.854 43.3733C107.086 43.3733 106.405 43.6615 105.813 44.2377C105.221 44.814 104.925 45.6304 104.925 46.687C104.925 47.7435 105.221 48.5599 105.813 49.1362C106.405 49.6965 107.086 49.9766 107.854 49.9766C108.623 49.9766 109.303 49.6885 109.895 49.1122ZM102.523 51.6094C101.339 50.3288 100.747 48.688 100.747 46.687C100.747 44.686 101.339 43.0451 102.523 41.7645C103.708 40.4679 105.149 39.8195 106.846 39.8195C108.558 39.8195 109.871 40.4519 110.784 41.7165V39.9636H114.89V53.3623H110.784V51.4173C109.791 52.826 108.462 53.5304 106.798 53.5304C105.133 53.5304 103.708 52.89 102.523 51.6094Z" fill="#18181B"/>
<path d="M116.792 39.9636H121.163L124.212 49.9286L127.262 39.9636H131.632L126.877 53.3623H121.547L116.792 39.9636Z" fill="#18181B"/>
<path d="M139.219 53.5304C137.266 53.5304 135.665 52.906 134.417 51.6574C133.168 50.3928 132.544 48.72 132.544 46.6389C132.544 44.5579 133.16 42.9011 134.393 41.6685C135.641 40.4358 137.25 39.8195 139.219 39.8195C141.188 39.8195 142.821 40.4278 144.117 41.6444C145.414 42.8611 146.062 44.5499 146.062 46.711C146.062 47.1752 146.03 47.6074 145.966 48.0076H136.746C136.826 48.5999 137.09 49.0882 137.538 49.4723C137.986 49.8405 138.467 50.0246 138.979 50.0246C139.507 50.0246 139.899 49.9766 140.155 49.8805C140.412 49.7685 140.596 49.6644 140.708 49.5684C140.836 49.4563 140.996 49.2802 141.188 49.0401H145.63C145.246 50.3848 144.478 51.4733 143.325 52.3058C142.172 53.1222 140.804 53.5304 139.219 53.5304ZM141.788 45.4383C141.724 44.814 141.452 44.3098 140.972 43.9256C140.492 43.5254 139.923 43.3253 139.267 43.3253C138.611 43.3253 138.058 43.5254 137.61 43.9256C137.162 44.3098 136.882 44.814 136.77 45.4383H141.788Z" fill="#18181B"/>
<path d="M152.806 39.9636V42.4609C153.766 40.7 155.047 39.8195 156.648 39.8195V43.9976H155.639C154.695 43.9976 153.982 44.2217 153.502 44.67C153.038 45.1182 152.806 45.9026 152.806 47.0231V53.3623H148.7V39.9636H152.806Z" fill="#18181B"/>
<path d="M162.623 38.4509C162.158 38.9151 161.59 39.1472 160.918 39.1472C160.245 39.1472 159.677 38.9151 159.213 38.4509C158.749 37.9866 158.517 37.4183 158.517 36.746C158.517 36.0577 158.749 35.4814 159.213 35.0171C159.677 34.5529 160.245 34.3208 160.918 34.3208C161.59 34.3208 162.158 34.5529 162.623 35.0171C163.087 35.4814 163.319 36.0577 163.319 36.746C163.319 37.4183 163.087 37.9866 162.623 38.4509ZM158.877 53.3623V39.9636H162.983V53.3623H158.877Z" fill="#18181B"/>
<path d="M174.635 49.1602C175.18 48.5839 175.452 47.7515 175.452 46.6629C175.452 45.5744 175.172 44.75 174.611 44.1897C174.051 43.6134 173.387 43.3253 172.618 43.3253C171.85 43.3253 171.186 43.6134 170.625 44.1897C170.081 44.75 169.809 45.5744 169.809 46.6629C169.809 47.7515 170.089 48.5839 170.65 49.1602C171.226 49.7365 171.898 50.0246 172.667 50.0246C173.435 50.0246 174.091 49.7365 174.635 49.1602ZM167.648 51.6334C166.303 50.3688 165.631 48.704 165.631 46.6389C165.631 44.5739 166.303 42.9251 167.648 41.6925C168.993 40.4438 170.658 39.8195 172.642 39.8195C174.627 39.8195 176.284 40.4438 177.613 41.6925C178.958 42.9251 179.63 44.5739 179.63 46.6389C179.63 48.704 178.966 50.3688 177.637 51.6334C176.308 52.898 174.651 53.5304 172.667 53.5304C170.682 53.5304 169.009 52.898 167.648 51.6334Z" fill="#18181B"/>
<defs>
<filter id="filter0_d_2436_1066" x="0.276855" y="0.321777" width="228.277" height="103.322" filterUnits="userSpaceOnUse" color-interpolation-filters="sRGB">
<feFlood flood-opacity="0" result="BackgroundImageFix"/>
<feColorMatrix in="SourceAlpha" type="matrix" values="0 0 0 0 0 0 0 0 0 0 0 0 0 0 0 0 0 0 127 0" result="hardAlpha"/>
<feOffset dy="7"/>
<feGaussianBlur stdDeviation="10"/>
<feComposite in2="hardAlpha" operator="out"/>
<feColorMatrix type="matrix" values="0 0 0 0 0 0 0 0 0 0 0 0 0 0 0 0 0 0 0.07 0"/>
<feBlend mode="normal" in2="BackgroundImageFix" result="effect1_dropShadow_2436_1066"/>
<feBlend mode="normal" in="SourceGraphic" in2="effect1_dropShadow_2436_1066" result="shape"/>
</filter>
</defs>
</svg>
