<svg width="60" height="60" viewBox="0 0 60 60" fill="none" xmlns="http://www.w3.org/2000/svg">
<path d="M39.9447 5.99231C39.8029 6.72142 39.7322 7.46255 39.7336 8.20529C39.7336 14.8691 45.1437 20.2713 51.8173 20.2713C52.5521 20.2677 53.2851 20.1971 54.0071 20.0605V43.9817C54.0071 54.0455 48.0708 59.9994 37.9923 59.9994H16.0412C5.9363 59.9994 0 54.0455 0 43.9817V22.0627C0 11.999 5.9363 5.99231 16.0412 5.99231H39.9447ZM40.3073 23.9775L39.9553 23.9994C39.3685 24.0838 38.8412 24.4022 38.4936 24.8816L31.2645 34.1814L23.0328 27.7005C22.5629 27.3344 21.965 27.1728 21.3743 27.2521C20.7835 27.3314 20.2496 27.645 19.8932 28.1221L11.0283 39.5558C10.7167 39.9442 10.549 40.4281 10.5534 40.9257L10.5612 41.2568C10.6471 42.127 11.2439 42.8788 12.0987 43.1486C13.0604 43.4522 14.106 43.0691 14.6429 42.2166L22.0567 32.627L30.2883 39.0816C30.7565 39.459 31.3583 39.6301 31.9554 39.5556C32.5525 39.4811 33.0936 39.1673 33.4543 38.6864L42.029 27.6215V27.5688C42.7631 26.5824 42.5758 25.1915 41.6069 24.4338C41.1379 24.0718 40.542 23.915 39.9553 23.9994L40.3073 23.9775Z" fill="#F23936"/>
<path opacity="0.4" d="M52.5054 15.002C56.6481 15.002 60.0064 11.6437 60.0064 7.50099C60.0064 3.35831 56.6481 0 52.5054 0C48.3627 0 45.0044 3.35831 45.0044 7.50099C45.0044 11.6437 48.3627 15.002 52.5054 15.002Z" fill="#F23936"/>
</svg>
