<svg width="61" height="60" viewBox="0 0 61 60" fill="none" xmlns="http://www.w3.org/2000/svg">
<path d="M24.9612 10.666C25.114 10.977 25.2149 11.3101 25.2601 11.6525L26.0954 24.0722L26.51 30.3147C26.5143 30.9566 26.615 31.5944 26.8089 32.2076C27.3097 33.3971 28.5144 34.1532 29.8251 34.1004L49.7969 32.7941C50.6618 32.7798 51.4969 33.1033 52.1186 33.6933C52.6367 34.185 52.9712 34.8281 53.0766 35.5199L53.112 35.94C52.2855 47.3841 43.8804 56.9294 32.46 59.3934C21.0396 61.8574 9.32852 56.6523 3.68506 46.6041C2.05809 43.6849 1.04188 40.4762 0.696075 37.1664C0.551615 36.1866 0.488006 35.1969 0.505867 34.2071C0.488032 21.9376 9.22534 11.3303 21.4559 8.77315C22.928 8.54394 24.371 9.32321 24.9612 10.666Z" fill="#14B082"/>
<path opacity="0.4" d="M33.1132 0.00245756C46.7928 0.35048 58.2901 10.1874 60.5031 23.4369L60.482 23.5346L60.4216 23.6768L60.43 24.0671C60.3987 24.5841 60.199 25.0816 59.855 25.4835C59.4967 25.902 59.0071 26.1871 58.4679 26.2977L58.1391 26.3428L35.0968 27.8358C34.3303 27.9114 33.5672 27.6643 32.9972 27.1559C32.5222 26.7322 32.2185 26.1603 32.1327 25.544L30.5861 2.53519C30.5592 2.45739 30.5592 2.37305 30.5861 2.29524C30.6072 1.66102 30.8864 1.06152 31.3613 0.630689C31.8361 0.199859 32.4671 -0.0264011 33.1132 0.00245756Z" fill="#14B082"/>
</svg>
