<svg width="162" height="24" viewBox="0 0 162 24" fill="none" xmlns="http://www.w3.org/2000/svg">
<path d="M9.024 23.648C6.25067 23.648 4.05333 22.88 2.432 21.344C0.810667 19.7867 0 17.568 0 14.688V9.31199C0 6.43199 0.810667 4.22399 2.432 2.68799C4.05333 1.13066 6.25067 0.35199 9.024 0.35199C11.776 0.35199 13.8987 1.10932 15.392 2.62399C16.9067 4.11732 17.664 6.17599 17.664 8.79999V8.99199H13.504V8.67199C13.504 7.34932 13.1307 6.26132 12.384 5.40799C11.6587 4.55466 10.5387 4.12799 9.024 4.12799C7.53067 4.12799 6.35733 4.58666 5.504 5.50399C4.65067 6.42132 4.224 7.66932 4.224 9.24799V14.752C4.224 16.3093 4.65067 17.5573 5.504 18.496C6.35733 19.4133 7.53067 19.872 9.024 19.872C10.5387 19.872 11.6587 19.4453 12.384 18.592C13.1307 17.7173 13.504 16.6293 13.504 15.328V14.752H17.664V15.2C17.664 17.824 16.9067 19.8933 15.392 21.408C13.8987 22.9013 11.776 23.648 9.024 23.648Z" fill="#12141D"/>
<path d="M21.2337 23.2V0.79999H25.2657V23.2H21.2337Z" fill="#12141D"/>
<path d="M37.2858 23.648C35.7071 23.648 34.2884 23.328 33.0298 22.688C31.7711 22.048 30.7791 21.12 30.0537 19.904C29.3284 18.688 28.9657 17.2267 28.9657 15.52V15.008C28.9657 13.3013 29.3284 11.84 30.0537 10.624C30.7791 9.40799 31.7711 8.47999 33.0298 7.83999C34.2884 7.19999 35.7071 6.87999 37.2858 6.87999C38.8644 6.87999 40.2831 7.19999 41.5418 7.83999C42.8004 8.47999 43.7924 9.40799 44.5178 10.624C45.2431 11.84 45.6058 13.3013 45.6058 15.008V15.52C45.6058 17.2267 45.2431 18.688 44.5178 19.904C43.7924 21.12 42.8004 22.048 41.5418 22.688C40.2831 23.328 38.8644 23.648 37.2858 23.648ZM37.2858 20.064C38.5231 20.064 39.5471 19.6693 40.3577 18.88C41.1684 18.0693 41.5738 16.9173 41.5738 15.424V15.104C41.5738 13.6107 41.1684 12.4693 40.3577 11.68C39.5684 10.8693 38.5444 10.464 37.2858 10.464C36.0484 10.464 35.0244 10.8693 34.2138 11.68C33.4031 12.4693 32.9978 13.6107 32.9978 15.104V15.424C32.9978 16.9173 33.4031 18.0693 34.2138 18.88C35.0244 19.6693 36.0484 20.064 37.2858 20.064Z" fill="#12141D"/>
<path d="M55.3755 23.456C54.1382 23.456 53.0502 23.1787 52.1115 22.624C51.1942 22.048 50.4795 21.2587 49.9675 20.256C49.4555 19.2533 49.1995 18.1013 49.1995 16.8V7.32799H53.2315V16.48C53.2315 17.6747 53.5195 18.5707 54.0955 19.168C54.6928 19.7653 55.5355 20.064 56.6235 20.064C57.8608 20.064 58.8208 19.6587 59.5035 18.848C60.1862 18.016 60.5275 16.864 60.5275 15.392V7.32799H64.5595V23.2H60.5915V21.12H60.0155C59.7595 21.6533 59.2795 22.176 58.5755 22.688C57.8715 23.2 56.8048 23.456 55.3755 23.456Z" fill="#12141D"/>
<path d="M75.4463 23.648C74.1876 23.648 73.0036 23.3387 71.8942 22.72C70.8063 22.08 69.9316 21.152 69.2702 19.936C68.6089 18.72 68.2783 17.248 68.2783 15.52V15.008C68.2783 13.28 68.6089 11.808 69.2702 10.592C69.9316 9.37599 70.8063 8.45866 71.8942 7.83999C72.9822 7.19999 74.1663 6.87999 75.4463 6.87999C76.4062 6.87999 77.2063 6.99732 77.8463 7.23199C78.5076 7.44532 79.0409 7.72266 79.4463 8.06399C79.8516 8.40532 80.1609 8.76799 80.3743 9.15199H80.9502V0.79999H84.9823V23.2H81.0143V21.28H80.4383C80.0756 21.8773 79.5103 22.4213 78.7423 22.912C77.9956 23.4027 76.8969 23.648 75.4463 23.648ZM76.6623 20.128C77.8996 20.128 78.9342 19.7333 79.7663 18.944C80.5983 18.1333 81.0143 16.96 81.0143 15.424V15.104C81.0143 13.568 80.5983 12.4053 79.7663 11.616C78.9556 10.8053 77.9209 10.4 76.6623 10.4C75.4249 10.4 74.3903 10.8053 73.5583 11.616C72.7262 12.4053 72.3102 13.568 72.3102 15.104V15.424C72.3102 16.96 72.7262 18.1333 73.5583 18.944C74.3903 19.7333 75.4249 20.128 76.6623 20.128Z" fill="#12141D"/>
<path d="M97.1005 23.648C95.3725 23.648 93.8472 23.3387 92.5245 22.72C91.2018 22.1013 90.1672 21.216 89.4205 20.064C88.6738 18.912 88.3005 17.5253 88.3005 15.904V15.008H92.4605V15.904C92.4605 17.248 92.8765 18.2613 93.7085 18.944C94.5405 19.6053 95.6712 19.936 97.1005 19.936C98.5512 19.936 99.6285 19.648 100.333 19.072C101.058 18.496 101.421 17.76 101.421 16.864C101.421 16.2453 101.239 15.744 100.877 15.36C100.535 14.976 100.023 14.6667 99.3405 14.432C98.6792 14.176 97.8685 13.9413 96.9085 13.728L96.1725 13.568C94.6365 13.2267 93.3138 12.8 92.2045 12.288C91.1165 11.7547 90.2738 11.0613 89.6765 10.208C89.1005 9.35466 88.8125 8.24532 88.8125 6.87999C88.8125 5.51466 89.1325 4.35199 89.7725 3.39199C90.4338 2.41066 91.3512 1.66399 92.5245 1.15199C93.7192 0.618657 95.1165 0.35199 96.7165 0.35199C98.3165 0.35199 99.7352 0.629323 100.973 1.18399C102.231 1.71732 103.213 2.52799 103.917 3.61599C104.642 4.68266 105.005 6.02666 105.005 7.64799V8.60799H100.845V7.64799C100.845 6.79466 100.674 6.11199 100.333 5.59999C100.013 5.06666 99.5432 4.68266 98.9245 4.44799C98.3058 4.19199 97.5698 4.06399 96.7165 4.06399C95.4365 4.06399 94.4872 4.30932 93.8685 4.79999C93.2712 5.26932 92.9725 5.91999 92.9725 6.75199C92.9725 7.30666 93.1112 7.77599 93.3885 8.15999C93.6872 8.54399 94.1245 8.86399 94.7005 9.11999C95.2765 9.37599 96.0125 9.59999 96.9085 9.79199L97.6445 9.95199C99.2445 10.2933 100.631 10.7307 101.805 11.264C102.999 11.7973 103.927 12.5013 104.589 13.376C105.25 14.2507 105.58 15.3707 105.58 16.736C105.58 18.1013 105.229 19.3067 104.524 20.352C103.842 21.376 102.861 22.1867 101.581 22.784C100.322 23.36 98.8285 23.648 97.1005 23.648Z" fill="#2B59FF"/>
<path d="M113.787 23.648C112.656 23.648 111.643 23.456 110.747 23.072C109.851 22.6667 109.136 22.0907 108.603 21.344C108.091 20.576 107.835 19.648 107.835 18.56C107.835 17.472 108.091 16.5653 108.603 15.84C109.136 15.0933 109.861 14.5387 110.779 14.176C111.717 13.792 112.784 13.6 113.979 13.6H118.331V12.704C118.331 11.9573 118.096 11.3493 117.627 10.88C117.157 10.3893 116.411 10.144 115.387 10.144C114.384 10.144 113.637 10.3787 113.147 10.848C112.656 11.296 112.336 11.8827 112.187 12.608L108.475 11.36C108.731 10.5493 109.136 9.81332 109.691 9.15199C110.267 8.46932 111.024 7.92532 111.963 7.51999C112.923 7.09332 114.085 6.87999 115.451 6.87999C117.541 6.87999 119.195 7.40266 120.411 8.44799C121.627 9.49332 122.235 11.008 122.235 12.992V18.912C122.235 19.552 122.533 19.872 123.131 19.872H124.411V23.2H121.723C120.933 23.2 120.283 23.008 119.771 22.624C119.259 22.24 119.003 21.728 119.003 21.088V21.056H118.395C118.309 21.312 118.117 21.6533 117.819 22.08C117.52 22.4853 117.051 22.848 116.411 23.168C115.771 23.488 114.896 23.648 113.787 23.648ZM114.491 20.384C115.621 20.384 116.539 20.0747 117.243 19.456C117.968 18.816 118.331 17.9733 118.331 16.928V16.608H114.267C113.52 16.608 112.933 16.768 112.507 17.088C112.08 17.408 111.867 17.856 111.867 18.432C111.867 19.008 112.091 19.4773 112.539 19.84C112.987 20.2027 113.637 20.384 114.491 20.384Z" fill="#2B59FF"/>
<path d="M132.287 23.648C131.156 23.648 130.143 23.456 129.247 23.072C128.351 22.6667 127.636 22.0907 127.103 21.344C126.591 20.576 126.335 19.648 126.335 18.56C126.335 17.472 126.591 16.5653 127.103 15.84C127.636 15.0933 128.361 14.5387 129.279 14.176C130.217 13.792 131.284 13.6 132.479 13.6H136.831V12.704C136.831 11.9573 136.596 11.3493 136.127 10.88C135.657 10.3893 134.911 10.144 133.887 10.144C132.884 10.144 132.137 10.3787 131.647 10.848C131.156 11.296 130.836 11.8827 130.687 12.608L126.975 11.36C127.231 10.5493 127.636 9.81332 128.191 9.15199C128.767 8.46932 129.524 7.92532 130.463 7.51999C131.423 7.09332 132.585 6.87999 133.951 6.87999C136.041 6.87999 137.695 7.40266 138.911 8.44799C140.127 9.49332 140.735 11.008 140.735 12.992V18.912C140.735 19.552 141.033 19.872 141.631 19.872H142.911V23.2H140.223C139.433 23.2 138.783 23.008 138.271 22.624C137.759 22.24 137.503 21.728 137.503 21.088V21.056H136.895C136.809 21.312 136.617 21.6533 136.319 22.08C136.02 22.4853 135.551 22.848 134.911 23.168C134.271 23.488 133.396 23.648 132.287 23.648ZM132.991 20.384C134.121 20.384 135.039 20.0747 135.743 19.456C136.468 18.816 136.831 17.9733 136.831 16.928V16.608H132.767C132.02 16.608 131.433 16.768 131.007 17.088C130.58 17.408 130.367 17.856 130.367 18.432C130.367 19.008 130.591 19.4773 131.039 19.84C131.487 20.2027 132.137 20.384 132.991 20.384Z" fill="#2B59FF"/>
<path d="M153.507 23.648C151.779 23.648 150.253 23.3387 148.931 22.72C147.608 22.1013 146.573 21.216 145.827 20.064C145.08 18.912 144.707 17.5253 144.707 15.904V15.008H148.867V15.904C148.867 17.248 149.283 18.2613 150.115 18.944C150.947 19.6053 152.077 19.936 153.507 19.936C154.957 19.936 156.035 19.648 156.739 19.072C157.464 18.496 157.827 17.76 157.827 16.864C157.827 16.2453 157.645 15.744 157.283 15.36C156.941 14.976 156.429 14.6667 155.747 14.432C155.085 14.176 154.275 13.9413 153.315 13.728L152.579 13.568C151.043 13.2267 149.72 12.8 148.611 12.288C147.523 11.7547 146.68 11.0613 146.083 10.208C145.507 9.35466 145.219 8.24532 145.219 6.87999C145.219 5.51466 145.539 4.35199 146.179 3.39199C146.84 2.41066 147.757 1.66399 148.931 1.15199C150.125 0.618657 151.523 0.35199 153.123 0.35199C154.723 0.35199 156.141 0.629323 157.379 1.18399C158.637 1.71732 159.619 2.52799 160.323 3.61599C161.048 4.68266 161.411 6.02666 161.411 7.64799V8.60799H157.251V7.64799C157.251 6.79466 157.08 6.11199 156.739 5.59999C156.419 5.06666 155.949 4.68266 155.331 4.44799C154.712 4.19199 153.976 4.06399 153.123 4.06399C151.843 4.06399 150.893 4.30932 150.275 4.79999C149.677 5.26932 149.379 5.91999 149.379 6.75199C149.379 7.30666 149.517 7.77599 149.795 8.15999C150.093 8.54399 150.531 8.86399 151.107 9.11999C151.683 9.37599 152.419 9.59999 153.315 9.79199L154.051 9.95199C155.651 10.2933 157.037 10.7307 158.211 11.264C159.405 11.7973 160.333 12.5013 160.995 13.376C161.656 14.2507 161.987 15.3707 161.987 16.736C161.987 18.1013 161.635 19.3067 160.931 20.352C160.248 21.376 159.267 22.1867 157.987 22.784C156.728 23.36 155.235 23.648 153.507 23.648Z" fill="#2B59FF"/>
</svg>
