<svg width="60" height="64" viewBox="0 0 60 64" fill="none" xmlns="http://www.w3.org/2000/svg">
<path opacity="0.4" d="M56.7737 36.9963C53.7852 35.2663 52.7509 31.5353 54.4393 28.5753C54.9936 27.6196 55.7994 26.8251 56.7737 26.2736C58.2547 25.4452 59.3362 24.0769 59.7796 22.4706C60.223 20.8643 59.9918 19.1522 59.137 17.7122L57.0331 14.035C56.1826 12.5926 54.7777 11.5392 53.1285 11.1074C51.4793 10.6755 49.7215 10.9007 48.243 11.7333C46.7602 12.5672 44.998 12.7931 43.3441 12.3614C41.6902 11.9298 40.2801 10.8759 39.4241 9.43154C38.8638 8.47318 38.5661 7.39053 38.5595 6.28769C38.5672 4.62268 37.8935 3.0233 36.6874 1.84331C35.4813 0.663329 33.8422 0 32.1327 0H27.8961C24.342 0 21.4563 2.79799 21.4405 6.25962C21.4525 8.50471 20.2292 10.5842 18.2345 11.7093C16.2397 12.8344 13.7791 12.8328 11.7858 11.7052C10.2937 10.8388 8.50509 10.5975 6.82742 11.0364C5.14975 11.4754 3.72596 12.557 2.88044 14.035L0.863045 17.5719C-0.900227 20.5731 0.155538 24.3978 3.22628 26.1332C6.30381 27.879 7.34839 31.7225 5.5607 34.7227C5.01392 35.6766 4.20571 36.4638 3.22628 36.9963C1.74535 37.8247 0.663801 39.193 0.22041 40.7993C-0.222982 42.4056 0.00824586 44.1177 0.863045 45.5577L2.88044 49.1507C4.67289 52.1481 8.61904 53.1655 11.6993 51.4244C14.7829 49.7233 18.6974 50.7483 20.4894 53.7261C21.0598 54.6804 21.3582 55.7657 21.354 56.8699C21.354 58.5473 22.042 60.1552 23.2652 61.336C24.4883 62.5168 26.1452 63.1726 27.8673 63.1579H32.1039C35.6692 63.1579 38.5595 60.3425 38.5595 56.8699C38.5364 55.1953 39.2033 53.5814 40.4111 52.3892C41.6188 51.197 43.2668 50.526 44.9864 50.5261C46.1204 50.5193 47.2355 50.8102 48.2142 51.3682C51.2956 53.0856 55.2225 52.0573 57.0043 49.0665L59.137 45.4735C60.8588 42.4934 59.8066 38.719 56.7737 36.9963Z" fill="#008EFF"/>
<path d="M30.0002 39.474C34.3603 39.474 37.8949 35.9394 37.8949 31.5793C37.8949 27.2192 34.3603 23.6846 30.0002 23.6846C25.6401 23.6846 22.1055 27.2192 22.1055 31.5793C22.1055 35.9394 25.6401 39.474 30.0002 39.474Z" fill="#008EFF"/>
</svg>
